<svg width="1381" height="80" viewBox="0 0 1381 80" fill="none" xmlns="http://www.w3.org/2000/svg">
<path d="M219.384 22.386C216.639 23.43 214.512 25.054 213.004 27.258C211.496 29.4233 210.742 32.0913 210.742 35.262C210.742 36.6927 210.877 37.698 211.148 38.278C211.419 38.8193 211.554 39.1287 211.554 39.206C209.466 39.206 207.9 38.7807 206.856 37.93C205.851 37.0407 205.348 35.5907 205.348 33.58C205.348 31.1053 206.353 28.708 208.364 26.388C210.413 24.0293 213.023 22.1347 216.194 20.704C219.365 19.2347 222.535 18.5 225.706 18.5C226.247 18.5 227.021 18.5387 228.026 18.616L228.548 54.286L240.728 18.79H248.094L248.616 54.286L260.796 18.79H264.856L248.732 62H240.38L239.684 32.478L228.664 62H220.312L219.384 22.386ZM268.969 62.348C266.146 62.348 263.942 61.6133 262.357 60.144C260.772 58.636 259.979 56.2967 259.979 53.126C259.979 50.458 260.501 47.5193 261.545 44.31C262.589 41.1007 264.29 38.336 266.649 36.016C269.008 33.6573 272.004 32.478 275.639 32.478C279.892 32.478 282.019 34.334 282.019 38.046C282.019 40.2113 281.4 42.2027 280.163 44.02C278.926 45.8373 277.282 47.3067 275.233 48.428C273.184 49.5107 270.999 50.1293 268.679 50.284C268.602 51.1347 268.563 51.7147 268.563 52.024C268.563 55.2333 269.762 56.838 272.159 56.838C273.242 56.838 274.402 56.548 275.639 55.968C276.876 55.388 277.998 54.6533 279.003 53.764C277.959 59.4867 274.614 62.348 268.969 62.348ZM269.085 47.5C270.554 47.4613 271.927 46.978 273.203 46.05C274.518 45.122 275.562 43.9427 276.335 42.512C277.147 41.0427 277.553 39.5153 277.553 37.93C277.553 36.3447 277.07 35.552 276.103 35.552C274.75 35.552 273.396 36.7893 272.043 39.264C270.728 41.7 269.742 44.4453 269.085 47.5ZM301.565 62.348C299.361 62.348 297.525 61.594 296.055 60.086C294.586 58.578 293.851 56.2193 293.851 53.01C293.851 50.1487 294.412 47.152 295.533 44.02C296.693 40.8493 298.395 38.1813 300.637 36.016C302.919 33.812 305.625 32.71 308.757 32.71C310.343 32.71 311.522 32.9807 312.295 33.522C313.069 34.0633 313.455 34.7787 313.455 35.668V36.074L314.093 33H322.445L318.269 52.72C318.115 53.3 318.037 53.9187 318.037 54.576C318.037 56.2387 318.83 57.07 320.415 57.07C321.498 57.07 322.426 56.5673 323.199 55.562C324.011 54.5567 324.649 53.242 325.113 51.618H327.549C326.119 55.794 324.34 58.636 322.213 60.144C320.125 61.6133 318.018 62.348 315.891 62.348C314.267 62.348 312.953 61.9033 311.947 61.014C310.981 60.086 310.401 58.752 310.207 57.012C309.086 58.5973 307.829 59.8927 306.437 60.898C305.084 61.8647 303.46 62.348 301.565 62.348ZM305.335 56.722C306.302 56.722 307.249 56.2773 308.177 55.388C309.144 54.46 309.801 53.2033 310.149 51.618L312.933 38.51C312.933 38.0073 312.74 37.524 312.353 37.06C311.967 36.5573 311.367 36.306 310.555 36.306C309.009 36.306 307.617 37.2147 306.379 39.032C305.142 40.8107 304.175 42.976 303.479 45.528C302.783 48.0413 302.435 50.2647 302.435 52.198C302.435 54.1313 302.706 55.3687 303.247 55.91C303.827 56.4513 304.523 56.722 305.335 56.722ZM329.079 33H337.431L336.677 36.596C337.991 35.436 339.171 34.5467 340.215 33.928C341.297 33.3093 342.457 33 343.695 33C344.932 33 345.899 33.4253 346.595 34.276C347.329 35.1267 347.697 36.1513 347.697 37.35C347.697 38.4713 347.329 39.4573 346.595 40.308C345.86 41.1587 344.835 41.584 343.521 41.584C342.67 41.584 342.09 41.3907 341.781 41.004C341.51 40.5787 341.297 39.9793 341.143 39.206C341.027 38.7033 340.911 38.336 340.795 38.104C340.679 37.872 340.466 37.756 340.157 37.756C339.345 37.756 338.649 37.93 338.069 38.278C337.527 38.5873 336.812 39.148 335.923 39.96L331.283 62H322.931L329.079 33ZM355.119 62.348C352.297 62.348 350.093 61.6133 348.507 60.144C346.922 58.636 346.129 56.2967 346.129 53.126C346.129 50.458 346.651 47.5193 347.695 44.31C348.739 41.1007 350.441 38.336 352.799 36.016C355.158 33.6573 358.155 32.478 361.789 32.478C366.043 32.478 368.169 34.334 368.169 38.046C368.169 40.2113 367.551 42.2027 366.313 44.02C365.076 45.8373 363.433 47.3067 361.383 48.428C359.334 49.5107 357.149 50.1293 354.829 50.284C354.752 51.1347 354.713 51.7147 354.713 52.024C354.713 55.2333 355.912 56.838 358.309 56.838C359.392 56.838 360.552 56.548 361.789 55.968C363.027 55.388 364.148 54.6533 365.153 53.764C364.109 59.4867 360.765 62.348 355.119 62.348ZM355.235 47.5C356.705 47.4613 358.077 46.978 359.353 46.05C360.668 45.122 361.712 43.9427 362.485 42.512C363.297 41.0427 363.703 39.5153 363.703 37.93C363.703 36.3447 363.22 35.552 362.253 35.552C360.9 35.552 359.547 36.7893 358.193 39.264C356.879 41.7 355.893 44.4453 355.235 47.5ZM386.498 62.348C384.642 62.348 383.134 61.768 381.974 60.608C380.853 59.448 380.292 57.708 380.292 55.388C380.292 54.4213 380.447 53.1647 380.756 51.618L384.7 33H393.052L388.876 52.72C388.76 53.184 388.702 53.6673 388.702 54.17C388.702 55.8713 389.282 56.722 390.442 56.722C391.525 56.722 392.453 56.2773 393.226 55.388C393.999 54.46 394.618 53.2033 395.082 51.618L399.026 33H407.378L403.202 52.72C403.009 53.6867 402.912 54.3827 402.912 54.808C402.912 56.084 403.569 56.722 404.884 56.722C406.663 56.722 408.306 55.6007 409.814 53.358C411.361 51.1153 412.598 48.4473 413.526 45.354C414.454 42.2607 414.918 39.5927 414.918 37.35C414.841 37.5433 414.589 37.698 414.164 37.814C413.739 37.8913 413.371 37.93 413.062 37.93C412.405 37.93 411.883 37.6207 411.496 37.002C411.148 36.3833 410.974 35.7067 410.974 34.972C410.974 34.044 411.264 33.29 411.844 32.71C412.463 32.13 413.371 31.84 414.57 31.84C415.846 31.84 416.774 32.3233 417.354 33.29C417.934 34.218 418.224 35.4167 418.224 36.886C418.224 40.366 417.625 44.0973 416.426 48.08C415.227 52.024 413.391 55.388 410.916 58.172C408.441 60.956 405.367 62.348 401.694 62.348C399.799 62.348 398.253 61.942 397.054 61.13C395.855 60.318 395.082 59.1 394.734 57.476C392.569 60.724 389.823 62.348 386.498 62.348ZM426.062 62.348C423.858 62.348 422.021 61.594 420.552 60.086C419.082 58.578 418.348 56.2193 418.348 53.01C418.348 50.1487 418.908 47.152 420.03 44.02C421.19 40.8493 422.891 38.1813 425.134 36.016C427.415 33.812 430.122 32.71 433.254 32.71C434.839 32.71 436.018 32.9807 436.792 33.522C437.565 34.0633 437.952 34.7787 437.952 35.668V36.074L438.59 33H446.942L442.766 52.72C442.611 53.3 442.534 53.9187 442.534 54.576C442.534 56.2387 443.326 57.07 444.912 57.07C445.994 57.07 446.922 56.5673 447.696 55.562C448.508 54.5567 449.146 53.242 449.61 51.618H452.046C450.615 55.794 448.836 58.636 446.71 60.144C444.622 61.6133 442.514 62.348 440.388 62.348C438.764 62.348 437.449 61.9033 436.444 61.014C435.477 60.086 434.897 58.752 434.704 57.012C433.582 58.5973 432.326 59.8927 430.934 60.898C429.58 61.8647 427.956 62.348 426.062 62.348ZM429.832 56.722C430.798 56.722 431.746 56.2773 432.674 55.388C433.64 54.46 434.298 53.2033 434.646 51.618L437.43 38.51C437.43 38.0073 437.236 37.524 436.85 37.06C436.463 36.5573 435.864 36.306 435.052 36.306C433.505 36.306 432.113 37.2147 430.876 39.032C429.638 40.8107 428.672 42.976 427.976 45.528C427.28 48.0413 426.932 50.2647 426.932 52.198C426.932 54.1313 427.202 55.3687 427.744 55.91C428.324 56.4513 429.02 56.722 429.832 56.722ZM459.317 29.868C458.041 29.868 456.958 29.4233 456.069 28.534C455.18 27.6447 454.735 26.562 454.735 25.286C454.735 24.01 455.18 22.9273 456.069 22.038C456.958 21.11 458.041 20.646 459.317 20.646C460.593 20.646 461.676 21.11 462.565 22.038C463.493 22.9273 463.957 24.01 463.957 25.286C463.957 26.562 463.493 27.6447 462.565 28.534C461.676 29.4233 460.593 29.868 459.317 29.868ZM455.373 62.348C453.517 62.348 452.009 61.768 450.849 60.608C449.728 59.448 449.167 57.708 449.167 55.388C449.167 54.4213 449.322 53.1647 449.631 51.618L453.575 33H461.927L457.751 52.72C457.596 53.3 457.519 53.9187 457.519 54.576C457.519 55.3493 457.693 55.91 458.041 56.258C458.428 56.5673 459.046 56.722 459.897 56.722C461.018 56.722 462.062 56.258 463.029 55.33C463.996 54.3633 464.692 53.126 465.117 51.618H467.553C466.122 55.794 464.286 58.636 462.043 60.144C459.8 61.6133 457.577 62.348 455.373 62.348ZM470.836 62.348C468.98 62.348 467.472 61.768 466.312 60.608C465.19 59.448 464.63 57.708 464.63 55.388C464.63 54.4213 464.784 53.1647 465.094 51.618L468.574 35.32H466.66L467.124 33H469.038L470.778 24.996L479.362 23.836L477.39 33H480.87L480.406 35.32H476.926L473.214 52.72C473.059 53.3 472.982 53.9187 472.982 54.576C472.982 55.3493 473.156 55.91 473.504 56.258C473.89 56.5673 474.509 56.722 475.36 56.722C476.481 56.722 477.525 56.258 478.492 55.33C479.458 54.3633 480.154 53.126 480.58 51.618H483.016C481.585 55.794 479.748 58.636 477.506 60.144C475.263 61.6133 473.04 62.348 470.836 62.348ZM490.243 29.868C488.967 29.868 487.884 29.4233 486.995 28.534C486.105 27.6447 485.661 26.562 485.661 25.286C485.661 24.01 486.105 22.9273 486.995 22.038C487.884 21.11 488.967 20.646 490.243 20.646C491.519 20.646 492.601 21.11 493.491 22.038C494.419 22.9273 494.883 24.01 494.883 25.286C494.883 26.562 494.419 27.6447 493.491 28.534C492.601 29.4233 491.519 29.868 490.243 29.868ZM486.299 62.348C484.443 62.348 482.935 61.768 481.775 60.608C480.653 59.448 480.093 57.708 480.093 55.388C480.093 54.4213 480.247 53.1647 480.557 51.618L484.501 33H492.853L488.677 52.72C488.522 53.3 488.445 53.9187 488.445 54.576C488.445 55.3493 488.619 55.91 488.967 56.258C489.353 56.5673 489.972 56.722 490.823 56.722C491.944 56.722 492.988 56.258 493.955 55.33C494.921 54.3633 495.617 53.126 496.043 51.618H498.479C497.048 55.794 495.211 58.636 492.969 60.144C490.726 61.6133 488.503 62.348 486.299 62.348ZM516.958 62.348C514.599 62.348 512.859 61.7293 511.738 60.492C510.655 59.216 510.114 57.65 510.114 55.794C510.114 54.982 510.21 54.0733 510.404 53.068C510.597 52.024 510.79 51.0187 510.984 50.052C511.216 49.0853 511.37 48.4667 511.448 48.196C511.757 46.8427 512.047 45.5087 512.318 44.194C512.588 42.8793 512.724 41.816 512.724 41.004C512.724 39.032 512.028 38.046 510.636 38.046C509.63 38.046 508.741 38.5487 507.968 39.554C507.194 40.5207 506.576 41.7967 506.112 43.382L502.168 62H493.816L499.964 33H508.316L507.678 36.016C509.611 33.8507 511.873 32.768 514.464 32.768C516.436 32.768 518.002 33.3093 519.162 34.392C520.322 35.4747 520.902 37.118 520.902 39.322C520.902 40.4433 520.766 41.7 520.496 43.092C520.225 44.4453 519.838 46.108 519.336 48.08C519.026 49.2787 518.736 50.458 518.466 51.618C518.234 52.7393 518.118 53.6287 518.118 54.286C518.118 55.0593 518.292 55.6587 518.64 56.084C518.988 56.5093 519.587 56.722 520.438 56.722C521.598 56.722 522.526 56.316 523.222 55.504C523.918 54.6533 524.614 53.358 525.31 51.618H527.746C526.315 55.8713 524.652 58.7327 522.758 60.202C520.902 61.6327 518.968 62.348 516.958 62.348ZM535.511 76.5C533.693 76.5 532.089 75.9007 530.697 74.702C529.343 73.542 528.667 72.0533 528.667 70.236C528.667 68.5347 529.092 67.1427 529.943 66.06C530.793 64.9773 531.895 64.1267 533.249 63.508C534.602 62.8893 536.419 62.232 538.701 61.536L539.223 59.1C537.212 61.2653 534.892 62.348 532.263 62.348C530.059 62.348 528.222 61.594 526.753 60.086C525.283 58.578 524.549 56.2193 524.549 53.01C524.549 50.1487 525.109 47.152 526.231 44.02C527.391 40.8493 529.092 38.1813 531.335 36.016C533.616 33.812 536.323 32.71 539.455 32.71C541.04 32.71 542.219 32.9807 542.993 33.522C543.766 34.0633 544.153 34.7787 544.153 35.668V35.784L544.733 33H553.143L546.067 66.64C545.293 70.352 543.921 72.9233 541.949 74.354C540.015 75.7847 537.869 76.5 535.511 76.5ZM536.033 56.722C536.922 56.722 537.811 56.3547 538.701 55.62C539.629 54.8467 540.286 53.764 540.673 52.372L543.631 38.336C543.321 36.9827 542.529 36.306 541.253 36.306C539.706 36.306 538.314 37.2147 537.077 39.032C535.839 40.8107 534.873 42.976 534.177 45.528C533.481 48.0413 533.133 50.2647 533.133 52.198C533.133 54.1313 533.403 55.3687 533.945 55.91C534.525 56.4513 535.221 56.722 536.033 56.722ZM534.177 71.338C534.873 71.338 535.53 70.9707 536.149 70.236C536.767 69.54 537.251 68.3993 537.599 66.814L538.295 63.392C536.245 64.088 534.66 64.9 533.539 65.828C532.417 66.756 531.857 67.9547 531.857 69.424C531.857 69.888 532.089 70.3133 532.553 70.7C533.017 71.1253 533.558 71.338 534.177 71.338ZM560.524 76.5C558.707 76.5 557.121 75.9007 555.768 74.702C554.376 73.542 553.68 72.0533 553.68 70.236C553.68 68.5733 554.105 67.2007 554.956 66.118C555.807 65.0353 556.909 64.1653 558.262 63.508C559.615 62.8893 561.413 62.232 563.656 61.536L570.674 28.418C571.447 24.706 572.801 22.1347 574.734 20.704C576.706 19.2733 578.871 18.558 581.23 18.558C583.047 18.558 584.633 19.1573 585.986 20.356C587.378 21.516 588.074 23.0047 588.074 24.822C588.074 25.7113 588.016 26.504 587.9 27.2H585.174C585.251 26.3493 585.29 25.8273 585.29 25.634C585.29 25.0153 585.077 24.532 584.652 24.184C584.227 23.836 583.705 23.662 583.086 23.662C582.274 23.662 581.481 24.0293 580.708 24.764C579.935 25.46 579.374 26.678 579.026 28.418L578.04 33H582.274L581.868 35.32H577.576L570.906 66.64C570.133 70.3907 568.799 72.962 566.904 74.354C565.009 75.7847 562.883 76.5 560.524 76.5ZM559.19 71.338C560.737 71.338 561.839 69.83 562.496 66.814L563.25 63.45C561.201 64.146 559.635 64.9387 558.552 65.828C557.431 66.756 556.87 67.9547 556.87 69.424C556.87 69.888 557.102 70.3133 557.566 70.7C558.03 71.1253 558.571 71.338 559.19 71.338ZM589.675 62.232C586.814 62.232 584.552 61.4973 582.889 60.028C581.226 58.5587 580.395 56.2387 580.395 53.068C580.395 50.4387 580.936 47.5193 582.019 44.31C583.102 41.1007 584.842 38.336 587.239 36.016C589.636 33.6573 592.652 32.478 596.287 32.478C601.236 32.478 603.711 35.5713 603.711 41.758V41.816C603.827 41.8547 604.04 41.874 604.349 41.874C605.625 41.874 607.094 41.5453 608.757 40.888C610.42 40.192 611.928 39.3607 613.281 38.394L613.803 39.96C612.682 41.1587 611.212 42.1833 609.395 43.034C607.616 43.846 605.664 44.426 603.537 44.774C603.228 48.2927 602.435 51.3667 601.159 53.996C599.883 56.6253 598.24 58.6553 596.229 60.086C594.218 61.5167 592.034 62.232 589.675 62.232ZM591.995 57.012C592.923 57.012 593.851 56.49 594.779 55.446C595.707 54.3633 596.519 52.9133 597.215 51.096C597.911 49.24 598.414 47.1907 598.723 44.948C597.679 44.716 597.157 43.904 597.157 42.512C597.157 40.9267 597.756 39.8827 598.955 39.38C598.878 38.104 598.684 37.234 598.375 36.77C598.066 36.2673 597.524 36.016 596.751 36.016C595.475 36.016 594.238 36.944 593.039 38.8C591.84 40.656 590.874 42.8793 590.139 45.47C589.404 48.0607 589.037 50.342 589.037 52.314C589.037 54.17 589.25 55.4267 589.675 56.084C590.1 56.7027 590.874 57.012 591.995 57.012ZM610.639 33H618.991L618.237 36.596C619.552 35.436 620.731 34.5467 621.775 33.928C622.858 33.3093 624.018 33 625.255 33C626.493 33 627.459 33.4253 628.155 34.276C628.89 35.1267 629.257 36.1513 629.257 37.35C629.257 38.4713 628.89 39.4573 628.155 40.308C627.421 41.1587 626.396 41.584 625.081 41.584C624.231 41.584 623.651 41.3907 623.341 41.004C623.071 40.5787 622.858 39.9793 622.703 39.206C622.587 38.7033 622.471 38.336 622.355 38.104C622.239 37.872 622.027 37.756 621.717 37.756C620.905 37.756 620.209 37.93 619.629 38.278C619.088 38.5873 618.373 39.148 617.483 39.96L612.843 62H604.491L610.639 33ZM650.124 76.5C648.268 76.5 646.722 76.0167 645.484 75.05C644.247 74.0833 643.628 72.6913 643.628 70.874C643.628 68.67 644.518 66.8913 646.296 65.538C648.075 64.2233 650.337 63.1213 653.082 62.232L653.778 59.1C652.657 60.3373 651.516 61.188 650.356 61.652C649.196 62.116 648.017 62.348 646.818 62.348C644.962 62.348 643.454 61.768 642.294 60.608C641.173 59.448 640.612 57.708 640.612 55.388C640.612 54.4213 640.767 53.1647 641.076 51.618L645.02 33H653.372L649.196 52.72C649.08 53.184 649.022 53.6673 649.022 54.17C649.022 55.8713 649.602 56.722 650.762 56.722C651.768 56.722 652.657 56.2967 653.43 55.446C654.204 54.5567 654.822 53.3967 655.286 51.966L659.346 33H667.698L661.956 59.912C663.812 59.2933 665.301 58.3653 666.422 57.128C667.544 55.8907 668.491 54.054 669.264 51.618H671.7C670.656 55.0593 669.245 57.592 667.466 59.216C665.688 60.8013 663.677 61.884 661.434 62.464L660.564 66.64C659.791 70.3907 658.457 72.962 656.562 74.354C654.668 75.7847 652.522 76.5 650.124 76.5ZM648.79 71.976C649.448 71.976 650.086 71.5313 650.704 70.642C651.323 69.7527 651.806 68.4767 652.154 66.814L652.502 65.132C648.713 66.524 646.818 68.1673 646.818 70.062C646.818 70.5647 646.992 71.0093 647.34 71.396C647.688 71.7827 648.172 71.976 648.79 71.976ZM677.751 62.232C674.89 62.232 672.628 61.4973 670.965 60.028C669.303 58.5587 668.471 56.2387 668.471 53.068C668.471 50.4387 669.013 47.5193 670.095 44.31C671.178 41.1007 672.918 38.336 675.315 36.016C677.713 33.6573 680.729 32.478 684.363 32.478C689.313 32.478 691.787 35.5713 691.787 41.758V41.816C691.903 41.8547 692.116 41.874 692.425 41.874C693.701 41.874 695.171 41.5453 696.833 40.888C698.496 40.192 700.004 39.3607 701.357 38.394L701.879 39.96C700.758 41.1587 699.289 42.1833 697.471 43.034C695.693 43.846 693.74 44.426 691.613 44.774C691.304 48.2927 690.511 51.3667 689.235 53.996C687.959 56.6253 686.316 58.6553 684.305 60.086C682.295 61.5167 680.11 62.232 677.751 62.232ZM680.071 57.012C680.999 57.012 681.927 56.49 682.855 55.446C683.783 54.3633 684.595 52.9133 685.291 51.096C685.987 49.24 686.49 47.1907 686.799 44.948C685.755 44.716 685.233 43.904 685.233 42.512C685.233 40.9267 685.833 39.8827 687.031 39.38C686.954 38.104 686.761 37.234 686.451 36.77C686.142 36.2673 685.601 36.016 684.827 36.016C683.551 36.016 682.314 36.944 681.115 38.8C679.917 40.656 678.95 42.8793 678.215 45.47C677.481 48.0607 677.113 50.342 677.113 52.314C677.113 54.17 677.326 55.4267 677.751 56.084C678.177 56.7027 678.95 57.012 680.071 57.012ZM700.513 62.348C698.657 62.348 697.149 61.768 695.989 60.608C694.868 59.448 694.307 57.708 694.307 55.388C694.307 54.4213 694.462 53.1647 694.771 51.618L698.715 33H707.067L702.891 52.72C702.775 53.184 702.717 53.6673 702.717 54.17C702.717 55.8713 703.297 56.722 704.457 56.722C705.54 56.722 706.468 56.2773 707.241 55.388C708.015 54.46 708.633 53.2033 709.097 51.618L713.041 33H721.393L717.217 52.72C717.063 53.3 716.985 53.9187 716.985 54.576C716.985 55.3493 717.159 55.91 717.507 56.258C717.894 56.5673 718.513 56.722 719.363 56.722C719.982 56.722 720.427 56.6833 720.697 56.606C721.007 56.49 721.2 56.4127 721.277 56.374C721.123 58.346 720.446 59.8347 719.247 60.84C718.049 61.8453 716.579 62.348 714.839 62.348C713.215 62.348 711.901 61.8647 710.895 60.898C709.929 59.9313 709.349 58.578 709.155 56.838C707.841 58.9647 706.449 60.4147 704.979 61.188C703.549 61.9613 702.06 62.348 700.513 62.348ZM743.653 29.868C742.377 29.868 741.294 29.4233 740.405 28.534C739.515 27.6447 739.071 26.562 739.071 25.286C739.071 24.01 739.515 22.9273 740.405 22.038C741.294 21.11 742.377 20.646 743.653 20.646C744.929 20.646 746.011 21.11 746.901 22.038C747.829 22.9273 748.293 24.01 748.293 25.286C748.293 26.562 747.829 27.6447 746.901 28.534C746.011 29.4233 744.929 29.868 743.653 29.868ZM739.709 62.348C737.853 62.348 736.345 61.768 735.185 60.608C734.063 59.448 733.503 57.708 733.503 55.388C733.503 54.4213 733.657 53.1647 733.967 51.618L737.911 33H746.263L742.087 52.72C741.932 53.3 741.855 53.9187 741.855 54.576C741.855 55.3493 742.029 55.91 742.377 56.258C742.763 56.5673 743.382 56.722 744.233 56.722C745.354 56.722 746.398 56.258 747.365 55.33C748.331 54.3633 749.027 53.126 749.453 51.618H751.889C750.458 55.794 748.621 58.636 746.379 60.144C744.136 61.6133 741.913 62.348 739.709 62.348ZM769.382 62.348C767.332 62.348 765.844 61.7293 764.916 60.492C763.988 59.2547 763.524 57.6887 763.524 55.794C763.524 54.982 763.62 54.0733 763.814 53.068C764.007 52.024 764.2 51.0187 764.394 50.052C764.626 49.0853 764.78 48.4667 764.858 48.196C765.167 46.8427 765.457 45.5087 765.728 44.194C765.998 42.8793 766.134 41.816 766.134 41.004C766.134 39.032 765.438 38.046 764.046 38.046C763.04 38.046 762.151 38.5487 761.378 39.554C760.604 40.5207 759.986 41.7967 759.522 43.382L755.578 62H747.226L753.374 33H761.726L761.088 36.016C763.021 33.8507 765.283 32.768 767.874 32.768C769.846 32.768 771.412 33.3093 772.572 34.392C773.732 35.4747 774.312 37.118 774.312 39.322C774.312 40.4433 774.176 41.7 773.906 43.092C773.635 44.4453 773.248 46.108 772.746 48.08C772.436 49.2787 772.146 50.458 771.876 51.618C771.644 52.7393 771.528 53.6287 771.528 54.286C771.528 55.0593 771.702 55.6587 772.05 56.084C772.398 56.5093 772.997 56.722 773.848 56.722C774.776 56.722 775.414 56.606 775.762 56.374C775.53 58.346 774.814 59.8347 773.616 60.84C772.456 61.8453 771.044 62.348 769.382 62.348ZM794.084 62.348C792.228 62.348 790.72 61.768 789.56 60.608C788.438 59.448 787.878 57.708 787.878 55.388C787.878 54.4213 788.032 53.1647 788.342 51.618L791.822 35.32H789.908L790.372 33H792.286L794.026 24.996L802.61 23.836L800.638 33H804.118L803.654 35.32H800.174L796.462 52.72C796.307 53.3 796.23 53.9187 796.23 54.576C796.23 55.3493 796.404 55.91 796.752 56.258C797.138 56.5673 797.757 56.722 798.608 56.722C799.729 56.722 800.773 56.258 801.74 55.33C802.706 54.3633 803.402 53.126 803.828 51.618H806.264C804.833 55.794 802.996 58.636 800.754 60.144C798.511 61.6133 796.288 62.348 794.084 62.348ZM824.743 62.348C822.384 62.348 820.644 61.7293 819.523 60.492C818.44 59.216 817.899 57.65 817.899 55.794C817.899 54.982 817.995 54.0733 818.189 53.068C818.382 52.024 818.575 51.0187 818.769 50.052C819.001 49.0853 819.155 48.4667 819.233 48.196C819.542 46.8427 819.832 45.5087 820.103 44.194C820.373 42.8793 820.509 41.816 820.509 41.004C820.509 39.032 819.813 38.046 818.421 38.046C817.415 38.046 816.526 38.5487 815.753 39.554C814.979 40.5207 814.361 41.7967 813.897 43.382L809.953 62H801.601L810.011 22.56L818.595 21.4L815.463 36.016C817.396 33.8507 819.658 32.768 822.249 32.768C824.221 32.768 825.787 33.3093 826.947 34.392C828.107 35.4747 828.687 37.118 828.687 39.322C828.687 40.4433 828.551 41.7 828.281 43.092C828.01 44.4453 827.623 46.108 827.121 48.08C826.811 49.2787 826.521 50.458 826.251 51.618C826.019 52.7393 825.903 53.6287 825.903 54.286C825.903 55.0593 826.077 55.6587 826.425 56.084C826.773 56.5093 827.372 56.722 828.223 56.722C829.383 56.722 830.311 56.316 831.007 55.504C831.703 54.6533 832.399 53.358 833.095 51.618H835.531C834.1 55.8713 832.437 58.7327 830.543 60.202C828.687 61.6327 826.753 62.348 824.743 62.348ZM841.266 62.348C838.443 62.348 836.239 61.6133 834.654 60.144C833.069 58.636 832.276 56.2967 832.276 53.126C832.276 50.458 832.798 47.5193 833.842 44.31C834.886 41.1007 836.587 38.336 838.946 36.016C841.305 33.6573 844.301 32.478 847.936 32.478C852.189 32.478 854.316 34.334 854.316 38.046C854.316 40.2113 853.697 42.2027 852.46 44.02C851.223 45.8373 849.579 47.3067 847.53 48.428C845.481 49.5107 843.296 50.1293 840.976 50.284C840.899 51.1347 840.86 51.7147 840.86 52.024C840.86 55.2333 842.059 56.838 844.456 56.838C845.539 56.838 846.699 56.548 847.936 55.968C849.173 55.388 850.295 54.6533 851.3 53.764C850.256 59.4867 846.911 62.348 841.266 62.348ZM841.382 47.5C842.851 47.4613 844.224 46.978 845.5 46.05C846.815 45.122 847.859 43.9427 848.632 42.512C849.444 41.0427 849.85 39.5153 849.85 37.93C849.85 36.3447 849.367 35.552 848.4 35.552C847.047 35.552 845.693 36.7893 844.34 39.264C843.025 41.7 842.039 44.4453 841.382 47.5ZM861.682 76.5C859.865 76.5 858.28 75.9007 856.926 74.702C855.534 73.542 854.838 72.0533 854.838 70.236C854.838 68.5733 855.264 67.2007 856.114 66.118C856.965 65.0353 858.067 64.1653 859.42 63.508C860.774 62.8893 862.572 62.232 864.814 61.536L871.832 28.418C872.606 24.706 873.959 22.1347 875.892 20.704C877.864 19.2733 880.03 18.558 882.388 18.558C884.206 18.558 885.791 19.1573 887.144 20.356C888.536 21.516 889.232 23.0047 889.232 24.822C889.232 25.7113 889.174 26.504 889.058 27.2H886.332C886.41 26.3493 886.448 25.8273 886.448 25.634C886.448 25.0153 886.236 24.532 885.81 24.184C885.385 23.836 884.863 23.662 884.244 23.662C883.432 23.662 882.64 24.0293 881.866 24.764C881.093 25.46 880.532 26.678 880.184 28.418L879.198 33H883.432L883.026 35.32H878.734L872.064 66.64C871.291 70.3907 869.957 72.962 868.062 74.354C866.168 75.7847 864.041 76.5 861.682 76.5ZM860.348 71.338C861.895 71.338 862.997 69.83 863.654 66.814L864.408 63.45C862.359 64.146 860.793 64.9387 859.71 65.828C858.589 66.756 858.028 67.9547 858.028 69.424C858.028 69.888 858.26 70.3133 858.724 70.7C859.188 71.1253 859.73 71.338 860.348 71.338ZM889.325 62.348C887.121 62.348 885.285 61.594 883.815 60.086C882.346 58.578 881.611 56.2193 881.611 53.01C881.611 50.1487 882.172 47.152 883.293 44.02C884.453 40.8493 886.155 38.1813 888.397 36.016C890.679 33.812 893.385 32.71 896.517 32.71C898.103 32.71 899.282 32.9807 900.055 33.522C900.829 34.0633 901.215 34.7787 901.215 35.668V36.074L901.853 33H910.205L906.029 52.72C905.875 53.3 905.797 53.9187 905.797 54.576C905.797 56.2387 906.59 57.07 908.175 57.07C909.258 57.07 910.186 56.5673 910.959 55.562C911.771 54.5567 912.409 53.242 912.873 51.618H915.309C913.879 55.794 912.1 58.636 909.973 60.144C907.885 61.6133 905.778 62.348 903.651 62.348C902.027 62.348 900.713 61.9033 899.707 61.014C898.741 60.086 898.161 58.752 897.967 57.012C896.846 58.5973 895.589 59.8927 894.197 60.898C892.844 61.8647 891.22 62.348 889.325 62.348ZM893.095 56.722C894.062 56.722 895.009 56.2773 895.937 55.388C896.904 54.46 897.561 53.2033 897.909 51.618L900.693 38.51C900.693 38.0073 900.5 37.524 900.113 37.06C899.727 36.5573 899.127 36.306 898.315 36.306C896.769 36.306 895.377 37.2147 894.139 39.032C892.902 40.8107 891.935 42.976 891.239 45.528C890.543 48.0413 890.195 50.2647 890.195 52.198C890.195 54.1313 890.466 55.3687 891.007 55.91C891.587 56.4513 892.283 56.722 893.095 56.722ZM916.839 33H925.191L924.437 36.596C925.751 35.436 926.931 34.5467 927.975 33.928C929.057 33.3093 930.217 33 931.455 33C932.692 33 933.659 33.4253 934.355 34.276C935.089 35.1267 935.457 36.1513 935.457 37.35C935.457 38.4713 935.089 39.4573 934.355 40.308C933.62 41.1587 932.595 41.584 931.281 41.584C930.43 41.584 929.85 41.3907 929.541 41.004C929.27 40.5787 929.057 39.9793 928.903 39.206C928.787 38.7033 928.671 38.336 928.555 38.104C928.439 37.872 928.226 37.756 927.917 37.756C927.105 37.756 926.409 37.93 925.829 38.278C925.287 38.5873 924.572 39.148 923.683 39.96L919.043 62H910.691L916.839 33ZM940.443 62.348C938.587 62.348 937.079 61.768 935.919 60.608C934.798 59.448 934.237 57.708 934.237 55.388C934.237 54.4213 934.392 53.1647 934.701 51.618L938.181 35.32H936.267L936.731 33H938.645L940.385 24.996L948.969 23.836L946.997 33H950.477L950.013 35.32H946.533L942.821 52.72C942.667 53.3 942.589 53.9187 942.589 54.576C942.589 55.3493 942.763 55.91 943.111 56.258C943.498 56.5673 944.117 56.722 944.967 56.722C946.089 56.722 947.133 56.258 948.099 55.33C949.066 54.3633 949.762 53.126 950.187 51.618H952.623C951.193 55.794 949.356 58.636 947.113 60.144C944.871 61.6133 942.647 62.348 940.443 62.348ZM971.102 62.348C968.743 62.348 967.003 61.7293 965.882 60.492C964.799 59.216 964.258 57.65 964.258 55.794C964.258 54.982 964.355 54.0733 964.548 53.068C964.741 52.024 964.935 51.0187 965.128 50.052C965.36 49.0853 965.515 48.4667 965.592 48.196C965.901 46.8427 966.191 45.5087 966.462 44.194C966.733 42.8793 966.868 41.816 966.868 41.004C966.868 39.032 966.172 38.046 964.78 38.046C963.775 38.046 962.885 38.5487 962.112 39.554C961.339 40.5207 960.72 41.7967 960.256 43.382L956.312 62H947.96L956.37 22.56L964.954 21.4L961.822 36.016C963.755 33.8507 966.017 32.768 968.608 32.768C970.58 32.768 972.146 33.3093 973.306 34.392C974.466 35.4747 975.046 37.118 975.046 39.322C975.046 40.4433 974.911 41.7 974.64 43.092C974.369 44.4453 973.983 46.108 973.48 48.08C973.171 49.2787 972.881 50.458 972.61 51.618C972.378 52.7393 972.262 53.6287 972.262 54.286C972.262 55.0593 972.436 55.6587 972.784 56.084C973.132 56.5093 973.731 56.722 974.582 56.722C975.742 56.722 976.67 56.316 977.366 55.504C978.062 54.6533 978.758 53.358 979.454 51.618H981.89C980.459 55.8713 978.797 58.7327 976.902 60.202C975.046 61.6327 973.113 62.348 971.102 62.348ZM987.741 62.348C984.88 62.348 982.657 61.6133 981.071 60.144C979.486 58.636 978.693 56.2967 978.693 53.126C978.693 50.458 979.215 47.5193 980.259 44.31C981.303 41.1007 983.005 38.336 985.363 36.016C987.722 33.6573 990.719 32.478 994.353 32.478C998.607 32.478 1000.73 34.334 1000.73 38.046C1000.73 40.2113 1000.11 42.2027 998.877 44.02C997.64 45.8373 995.997 47.3067 993.947 48.428C991.898 49.5107 989.713 50.1293 987.393 50.284C987.316 51.444 987.277 52.2173 987.277 52.604C987.277 54.4987 987.606 55.794 988.263 56.49C988.921 57.1473 989.984 57.476 991.453 57.476C993.541 57.476 995.32 56.9927 996.789 56.026C998.297 55.0593 999.941 53.59 1001.72 51.618H1003.69C999.399 58.7713 994.083 62.348 987.741 62.348ZM987.857 47.5C989.288 47.4227 990.641 46.92 991.917 45.992C993.232 45.064 994.276 43.8847 995.049 42.454C995.861 41.0233 996.267 39.5153 996.267 37.93C996.267 36.3447 995.784 35.552 994.817 35.552C993.425 35.552 992.053 36.77 990.699 39.206C989.385 41.642 988.437 44.4067 987.857 47.5ZM1008.32 62.348C1006.46 62.348 1004.9 62 1003.62 61.304C1002.35 60.5693 1001.4 59.6413 1000.78 58.52C1000.16 57.36 999.851 56.1613 999.851 54.924C999.851 53.648 1000.16 52.546 1000.78 51.618C1001.36 50.6513 1002.07 49.9553 1002.93 49.53C1004.43 46.8233 1005.75 44.0973 1006.87 41.352C1007.99 38.568 1009.05 35.5713 1010.06 32.362L1018.64 31.202C1018.84 36.1513 1019.17 41.5067 1019.63 47.268C1019.82 49.588 1019.92 51.27 1019.92 52.314C1019.92 53.2033 1019.84 53.938 1019.69 54.518C1021.5 53.474 1022.9 52.5073 1023.86 51.618H1026.3C1023.82 54.4793 1020.87 56.896 1017.43 58.868C1016.3 60.0667 1014.91 60.956 1013.25 61.536C1011.63 62.0773 1009.98 62.348 1008.32 62.348ZM1006.46 57.766C1007.89 57.766 1009.09 57.3407 1010.06 56.49C1011.03 55.6393 1011.51 54.2667 1011.51 52.372C1011.51 51.212 1011.39 49.588 1011.16 47.5C1010.77 43.092 1010.52 40.134 1010.41 38.626C1009.48 41.6807 1007.91 45.3347 1005.71 49.588C1006.6 50.052 1007.04 50.7287 1007.04 51.618C1007.04 52.3527 1006.79 53.01 1006.29 53.59C1005.83 54.17 1005.23 54.46 1004.49 54.46C1003.68 54.46 1003.16 54.2087 1002.93 53.706C1002.93 55.098 1003.2 56.1227 1003.74 56.78C1004.32 57.4373 1005.23 57.766 1006.46 57.766ZM1029.31 62.348C1027.33 62.348 1025.86 61.7487 1024.9 60.55C1023.97 59.3513 1023.51 57.766 1023.51 55.794C1023.51 54.7887 1023.62 53.764 1023.85 52.72L1027.57 35.32H1025.65L1026.12 33H1028.03L1029.77 24.996L1038.35 23.836C1038.01 25.3053 1037.81 26.1753 1037.77 26.446C1037.5 27.5287 1037.04 29.7133 1036.38 33H1039.86L1039.4 35.32H1035.92L1032.21 52.72C1032.01 53.5707 1031.92 54.2473 1031.92 54.75C1031.92 56.142 1032.59 56.838 1033.95 56.838C1034.64 56.838 1035.14 56.78 1035.45 56.664C1034.68 58.9067 1033.77 60.4147 1032.73 61.188C1031.68 61.9613 1030.54 62.348 1029.31 62.348ZM1058.2 62.348C1056.34 62.348 1054.84 61.768 1053.68 60.608C1052.55 59.448 1051.99 57.708 1051.99 55.388C1051.99 54.4213 1052.15 53.1647 1052.46 51.618L1058.66 22.56L1067.25 21.4L1060.58 52.72C1060.42 53.3 1060.35 53.9187 1060.35 54.576C1060.35 55.3493 1060.52 55.91 1060.87 56.258C1061.25 56.5673 1061.87 56.722 1062.72 56.722C1063.84 56.722 1064.89 56.258 1065.86 55.33C1066.82 54.3633 1067.52 53.126 1067.94 51.618H1070.38C1068.95 55.794 1067.11 58.636 1064.87 60.144C1062.63 61.6133 1060.4 62.348 1058.2 62.348ZM1074.88 62.348C1072.68 62.348 1070.84 61.594 1069.37 60.086C1067.9 58.578 1067.17 56.2193 1067.17 53.01C1067.17 50.1487 1067.73 47.152 1068.85 44.02C1070.01 40.8493 1071.71 38.1813 1073.95 36.016C1076.23 33.812 1078.94 32.71 1082.07 32.71C1083.66 32.71 1084.84 32.9807 1085.61 33.522C1086.38 34.0633 1086.77 34.7787 1086.77 35.668V36.074L1087.41 33H1095.76L1091.58 52.72C1091.43 53.3 1091.35 53.9187 1091.35 54.576C1091.35 56.2387 1092.14 57.07 1093.73 57.07C1094.81 57.07 1095.74 56.5673 1096.51 55.562C1097.33 54.5567 1097.96 53.242 1098.43 51.618H1100.86C1099.43 55.794 1097.65 58.636 1095.53 60.144C1093.44 61.6133 1091.33 62.348 1089.21 62.348C1087.58 62.348 1086.27 61.9033 1085.26 61.014C1084.3 60.086 1083.72 58.752 1083.52 57.012C1082.4 58.5973 1081.14 59.8927 1079.75 60.898C1078.4 61.8647 1076.77 62.348 1074.88 62.348ZM1078.65 56.722C1079.62 56.722 1080.56 56.2773 1081.49 55.388C1082.46 54.46 1083.12 53.2033 1083.46 51.618L1086.25 38.51C1086.25 38.0073 1086.05 37.524 1085.67 37.06C1085.28 36.5573 1084.68 36.306 1083.87 36.306C1082.32 36.306 1080.93 37.2147 1079.69 39.032C1078.46 40.8107 1077.49 42.976 1076.79 45.528C1076.1 48.0413 1075.75 50.2647 1075.75 52.198C1075.75 54.1313 1076.02 55.3687 1076.56 55.91C1077.14 56.4513 1077.84 56.722 1078.65 56.722ZM1119.39 62.348C1117.03 62.348 1115.29 61.7293 1114.17 60.492C1113.08 59.216 1112.54 57.65 1112.54 55.794C1112.54 54.982 1112.64 54.0733 1112.83 53.068C1113.03 52.024 1113.22 51.0187 1113.41 50.052C1113.65 49.0853 1113.8 48.4667 1113.88 48.196C1114.19 46.8427 1114.48 45.5087 1114.75 44.194C1115.02 42.8793 1115.15 41.816 1115.15 41.004C1115.15 39.032 1114.46 38.046 1113.07 38.046C1112.06 38.046 1111.17 38.5487 1110.4 39.554C1109.62 40.5207 1109.01 41.7967 1108.54 43.382L1104.6 62H1096.25L1102.39 33H1110.75L1110.11 36.016C1112.04 33.8507 1114.3 32.768 1116.89 32.768C1118.87 32.768 1120.43 33.3093 1121.59 34.392C1122.75 35.4747 1123.33 37.118 1123.33 39.322C1123.33 40.4433 1123.2 41.7 1122.93 43.092C1122.65 44.4453 1122.27 46.108 1121.77 48.08C1121.46 49.2787 1121.17 50.458 1120.9 51.618C1120.66 52.7393 1120.55 53.6287 1120.55 54.286C1120.55 55.0593 1120.72 55.6587 1121.07 56.084C1121.42 56.5093 1122.02 56.722 1122.87 56.722C1124.03 56.722 1124.96 56.316 1125.65 55.504C1126.35 54.6533 1127.04 53.358 1127.74 51.618H1130.18C1128.74 55.8713 1127.08 58.7327 1125.19 60.202C1123.33 61.6327 1121.4 62.348 1119.39 62.348ZM1134.69 62.348C1132.49 62.348 1130.65 61.594 1129.18 60.086C1127.71 58.578 1126.98 56.2193 1126.98 53.01C1126.98 50.1487 1127.54 47.152 1128.66 44.02C1129.82 40.8493 1131.52 38.1813 1133.76 36.016C1136.05 33.812 1138.75 32.71 1141.88 32.71C1143.47 32.71 1144.65 32.9807 1145.42 33.522C1146.2 34.0633 1146.58 34.7787 1146.58 35.668V35.9L1149.42 22.56L1158.01 21.4L1151.34 52.72C1151.18 53.3 1151.11 53.8607 1151.11 54.402C1151.11 55.9487 1151.9 56.722 1153.48 56.722C1154.18 56.722 1154.8 56.606 1155.34 56.374C1155.19 58.3073 1154.49 59.796 1153.25 60.84C1152.05 61.8453 1150.62 62.348 1148.96 62.348C1147.41 62.348 1146.1 61.9613 1145.02 61.188C1143.97 60.376 1143.28 59.158 1142.93 57.534C1140.61 60.7433 1137.86 62.348 1134.69 62.348ZM1138.46 56.722C1139.31 56.722 1140.16 56.3547 1141.01 55.62C1141.9 54.8853 1142.56 53.8607 1142.99 52.546L1143.22 51.618L1146.06 38.336C1145.71 36.9827 1144.92 36.306 1143.68 36.306C1142.14 36.306 1140.74 37.2147 1139.51 39.032C1138.27 40.8107 1137.3 42.976 1136.61 45.528C1135.91 48.0413 1135.56 50.2647 1135.56 52.198C1135.56 54.1313 1135.83 55.3687 1136.37 55.91C1136.95 56.4513 1137.65 56.722 1138.46 56.722ZM1161.7 62.232C1160.42 62.232 1159.34 61.7873 1158.45 60.898C1157.56 60.0087 1157.11 58.926 1157.11 57.65C1157.11 56.374 1157.56 55.2913 1158.45 54.402C1159.34 53.474 1160.42 53.01 1161.7 53.01C1162.97 53.01 1164.06 53.474 1164.94 54.402C1165.87 55.2913 1166.34 56.374 1166.34 57.65C1166.34 58.926 1165.87 60.0087 1164.94 60.898C1164.06 61.7873 1162.97 62.232 1161.7 62.232Z" fill="#FFB31E"/>
<path fill-rule="evenodd" clip-rule="evenodd" d="M29.9918 46.1368L27.625 24L25.2165 46.5274L14.2403 38.2953L22.4383 49.2259L0 51.625L21.9618 53.9731L14.2404 64.5021L25.1897 56.4727L27.625 79.25L30.0194 56.855L40.4473 64.5021L32.7669 54.0289L55.25 51.625L32.2909 49.1703L40.4472 38.2952L29.9918 46.1368Z" fill="#FFB31E"/>
<path fill-rule="evenodd" clip-rule="evenodd" d="M141.907 34.3121L141.125 27L140.329 34.4412L136.704 31.722L139.412 35.3325L132 36.125L139.254 36.9006L136.704 40.3786L140.321 37.7263L141.125 45.25L141.916 37.8525L145.36 40.3785L142.823 36.919L150.25 36.125L142.666 35.3142L145.36 31.7219L141.907 34.3121Z" fill="#FFB31E"/>
<path fill-rule="evenodd" clip-rule="evenodd" d="M41.3635 23.4679L42.9167 39L44.4699 23.4679L52.8333 21.5L44.4699 19.5321L42.9167 4L41.3635 19.5321L33 21.5L41.3635 23.4679Z" fill="#FFB31E"/>
<path fill-rule="evenodd" clip-rule="evenodd" d="M189.018 26.6807L189.95 36L190.882 26.6807L195.9 25.5L190.882 24.3193L189.95 15L189.018 24.3193L184 25.5L189.018 26.6807Z" fill="#FFB31E"/>
<path fill-rule="evenodd" clip-rule="evenodd" d="M179.011 17.679L180.05 35L181.092 17.6313L185.9 16.5L180.97 15.3401L180.05 0L179.132 15.2924L174 16.5L179.011 17.679Z" fill="#FFB31E"/>
<circle cx="169.5" cy="10.5" r="1.5" fill="#FFB31E"/>
<circle cx="161.5" cy="27.5" r="4.5" fill="#FFB31E"/>
<circle cx="66.5" cy="37.5" r="4.5" fill="#FFB31E"/>
<circle cx="109" cy="47" r="3" fill="#FFB31E"/>
<circle cx="150" cy="9" r="3" fill="#FFB31E"/>
<circle cx="174.049" cy="34.049" r="1.5" transform="rotate(120 174.049 34.049)" fill="#FFB31E"/>
<circle cx="204.049" cy="8.04904" r="1.5" transform="rotate(120 204.049 8.04904)" fill="#FFB31E"/>
<path fill-rule="evenodd" clip-rule="evenodd" d="M165.083 45.083L162.264 48.7922L165.973 45.9732L165.083 45.083ZM165.973 45.9732L168.792 42.264L165.083 45.083L165.973 45.9732Z" fill="#FFB31E"/>
<path fill-rule="evenodd" clip-rule="evenodd" d="M165.973 45.0831L162.264 42.2641L165.083 45.9733L165.973 45.0831ZM165.083 45.9733L168.792 48.7923L165.973 45.0831L165.083 45.9733Z" fill="#FFB31E"/>
<path fill-rule="evenodd" clip-rule="evenodd" d="M91.0831 33.083L88.2641 36.7922L91.9733 33.9732L91.0831 33.083ZM91.9733 33.9732L94.7923 30.264L91.0831 33.083L91.9733 33.9732Z" fill="#FFB31E"/>
<path fill-rule="evenodd" clip-rule="evenodd" d="M91.9733 33.0831L88.2641 30.2641L91.0831 33.9733L91.9733 33.0831ZM91.0831 33.9733L94.7923 36.7923L91.9733 33.0831L91.0831 33.9733Z" fill="#FFB31E"/>
<path fill-rule="evenodd" clip-rule="evenodd" d="M131.083 49.083L128.264 52.7922L131.973 49.9732L131.083 49.083ZM131.973 49.9732L134.792 46.264L131.083 49.083L131.973 49.9732Z" fill="#FFB31E"/>
<path fill-rule="evenodd" clip-rule="evenodd" d="M131.973 49.0831L128.264 46.2641L131.083 49.9733L131.973 49.0831ZM131.083 49.9733L134.792 52.7923L131.973 49.0831L131.083 49.9733Z" fill="#FFB31E"/>
<path fill-rule="evenodd" clip-rule="evenodd" d="M63.6338 53.7395L69.357 58.3571L64.6579 52.5329L69.1443 51.8919L64.6765 51.2537L69.357 45.4524L63.679 50.0336L63.0232 45.7708L62.3412 50.2037L56.4523 45.4524L61.1239 51.2425L56.9021 51.892L61.1422 52.5443L56.4523 58.3571L62.3882 53.5679L63.0232 58.0131L63.6338 53.7395Z" fill="#FFB31E"/>
<path fill-rule="evenodd" clip-rule="evenodd" d="M185.634 49.7395L191.357 54.3571L186.658 48.5329L191.144 47.8919L186.676 47.2537L191.357 41.4524L185.679 46.0336L185.023 41.7708L184.341 46.2037L178.452 41.4524L183.124 47.2425L178.902 47.892L183.142 48.5443L178.452 54.3571L184.388 49.5679L185.023 54.0131L185.634 49.7395Z" fill="#FFB31E"/>
<circle cx="88.1213" cy="21.1213" r="1.5" transform="rotate(135 88.1213 21.1213)" fill="#FFB31E"/>
<circle cx="75.1213" cy="31.1213" r="1.5" transform="rotate(135 75.1213 31.1213)" fill="#FFB31E"/>
<circle cx="56.1213" cy="31.1213" r="1.5" transform="rotate(135 56.1213 31.1213)" fill="#FFB31E"/>
<circle cx="31.2426" cy="31.2427" r="3" transform="rotate(135 31.2426 31.2427)" fill="#FFB31E"/>
<path fill-rule="evenodd" clip-rule="evenodd" d="M71.2456 19.6161L70.6161 15L69.9866 19.6161L71.2456 19.6161ZM69.9866 19.6161L70.6161 24.2323L71.2456 19.6161L69.9866 19.6161Z" fill="#FFB31E"/>
<path fill-rule="evenodd" clip-rule="evenodd" d="M70.6161 20.2455L75.2322 19.616L70.6161 18.9866L70.6161 20.2455ZM70.6161 18.9866L66 19.616L70.6161 20.2455L70.6161 18.9866Z" fill="#FFB31E"/>
<path fill-rule="evenodd" clip-rule="evenodd" d="M82.2456 47.6161L81.6161 43L80.9866 47.6161L82.2456 47.6161ZM80.9866 47.6161L81.6161 52.2323L82.2456 47.6161L80.9866 47.6161Z" fill="#FFB31E"/>
<path fill-rule="evenodd" clip-rule="evenodd" d="M81.6161 48.2455L86.2322 47.616L81.6161 46.9866L81.6161 48.2455ZM81.6161 46.9866L77 47.616L81.6161 48.2455L81.6161 46.9866Z" fill="#FFB31E"/>
<path fill-rule="evenodd" clip-rule="evenodd" d="M122.256 16.4273L120.5 0L118.713 16.7172L110.567 10.6083L116.651 18.7197L100 20.5L116.297 22.2425L110.568 30.0559L118.693 24.0974L120.5 41L122.277 24.3811L130.015 30.0559L124.316 22.2838L141 20.5L123.962 18.6784L130.015 10.6082L122.256 16.4273Z" fill="#FFB31E"/>
<path fill-rule="evenodd" clip-rule="evenodd" d="M1350.11 46.1368L1352.47 24L1354.88 46.5274L1365.86 38.2953L1357.66 49.2259L1380.1 51.625L1358.14 53.9731L1365.86 64.5021L1354.91 56.4727L1352.47 79.25L1350.08 56.855L1339.65 64.5021L1347.33 54.0289L1324.85 51.625L1347.81 49.1703L1339.65 38.2952L1350.11 46.1368Z" fill="#FFB31E"/>
<path fill-rule="evenodd" clip-rule="evenodd" d="M1238.19 34.3121L1238.97 27L1239.77 34.4412L1243.39 31.722L1240.69 35.3325L1248.1 36.125L1240.84 36.9006L1243.39 40.3786L1239.78 37.7263L1238.97 45.25L1238.18 37.8525L1234.74 40.3785L1237.27 36.919L1229.85 36.125L1237.43 35.3142L1234.74 31.7219L1238.19 34.3121Z" fill="#FFB31E"/>
<path fill-rule="evenodd" clip-rule="evenodd" d="M1338.73 23.4679L1337.18 39L1335.63 23.4679L1327.26 21.5L1335.63 19.5321L1337.18 4L1338.73 19.5321L1347.1 21.5L1338.73 23.4679Z" fill="#FFB31E"/>
<path fill-rule="evenodd" clip-rule="evenodd" d="M1191.08 26.6807L1190.15 36L1189.22 26.6807L1184.2 25.5L1189.22 24.3193L1190.15 15L1191.08 24.3193L1196.1 25.5L1191.08 26.6807Z" fill="#FFB31E"/>
<path fill-rule="evenodd" clip-rule="evenodd" d="M1201.09 17.679L1200.05 35L1199.01 17.6313L1194.2 16.5L1199.13 15.3401L1200.05 0L1200.97 15.2924L1206.1 16.5L1201.09 17.679Z" fill="#FFB31E"/>
<circle r="1.5" transform="matrix(-1 0 0 1 1210.6 10.5)" fill="#FFB31E"/>
<circle r="4.5" transform="matrix(-1 0 0 1 1218.6 27.5)" fill="#FFB31E"/>
<circle r="4.5" transform="matrix(-1 0 0 1 1313.6 37.5)" fill="#FFB31E"/>
<circle r="3" transform="matrix(-1 0 0 1 1271.1 47)" fill="#FFB31E"/>
<circle r="3" transform="matrix(-1 0 0 1 1230.1 9)" fill="#FFB31E"/>
<circle r="1.5" transform="matrix(0.5 0.866025 0.866025 -0.5 1206.05 34.049)" fill="#FFB31E"/>
<circle r="1.5" transform="matrix(0.5 0.866025 0.866025 -0.5 1176.05 8.04904)" fill="#FFB31E"/>
<path fill-rule="evenodd" clip-rule="evenodd" d="M1215.02 45.083L1217.83 48.7922L1214.12 45.9732L1215.02 45.083ZM1214.12 45.9732L1211.31 42.264L1215.02 45.083L1214.12 45.9732Z" fill="#FFB31E"/>
<path fill-rule="evenodd" clip-rule="evenodd" d="M1214.12 45.0831L1217.83 42.2641L1215.02 45.9733L1214.12 45.0831ZM1215.02 45.9733L1211.31 48.7923L1214.12 45.0831L1215.02 45.9733Z" fill="#FFB31E"/>
<path fill-rule="evenodd" clip-rule="evenodd" d="M1289.02 33.083L1291.83 36.7922L1288.12 33.9732L1289.02 33.083ZM1288.12 33.9732L1285.31 30.264L1289.02 33.083L1288.12 33.9732Z" fill="#FFB31E"/>
<path fill-rule="evenodd" clip-rule="evenodd" d="M1288.12 33.0831L1291.83 30.2641L1289.02 33.9733L1288.12 33.0831ZM1289.02 33.9733L1285.31 36.7923L1288.12 33.0831L1289.02 33.9733Z" fill="#FFB31E"/>
<path fill-rule="evenodd" clip-rule="evenodd" d="M1249.02 49.083L1251.83 52.7922L1248.12 49.9732L1249.02 49.083ZM1248.12 49.9732L1245.31 46.264L1249.02 49.083L1248.12 49.9732Z" fill="#FFB31E"/>
<path fill-rule="evenodd" clip-rule="evenodd" d="M1248.12 49.0831L1251.83 46.2641L1249.02 49.9733L1248.12 49.0831ZM1249.02 49.9733L1245.31 52.7923L1248.12 49.0831L1249.02 49.9733Z" fill="#FFB31E"/>
<path fill-rule="evenodd" clip-rule="evenodd" d="M1316.46 53.7395L1310.74 58.3571L1315.44 52.5329L1310.95 51.8919L1315.42 51.2537L1310.74 45.4524L1316.42 50.0336L1317.08 45.7708L1317.76 50.2037L1323.65 45.4524L1318.97 51.2425L1323.2 51.892L1318.96 52.5443L1323.65 58.3571L1317.71 53.5679L1317.07 58.0131L1316.46 53.7395Z" fill="#FFB31E"/>
<path fill-rule="evenodd" clip-rule="evenodd" d="M1194.46 49.7395L1188.74 54.3571L1193.44 48.5329L1188.95 47.8919L1193.42 47.2537L1188.74 41.4524L1194.42 46.0336L1195.08 41.7708L1195.76 46.2037L1201.65 41.4524L1196.97 47.2425L1201.2 47.892L1196.96 48.5443L1201.65 54.3571L1195.71 49.5679L1195.07 54.0131L1194.46 49.7395Z" fill="#FFB31E"/>
<circle r="1.5" transform="matrix(0.707107 0.707107 0.707107 -0.707107 1291.98 21.1213)" fill="#FFB31E"/>
<circle r="1.5" transform="matrix(0.707107 0.707107 0.707107 -0.707107 1304.98 31.1213)" fill="#FFB31E"/>
<circle r="1.5" transform="matrix(0.707107 0.707107 0.707107 -0.707107 1323.98 31.1213)" fill="#FFB31E"/>
<circle r="3" transform="matrix(0.707107 0.707107 0.707107 -0.707107 1348.86 31.2427)" fill="#FFB31E"/>
<path fill-rule="evenodd" clip-rule="evenodd" d="M1308.85 19.6161L1309.48 15L1310.11 19.6161L1308.85 19.6161ZM1310.11 19.6161L1309.48 24.2323L1308.85 19.6161L1310.11 19.6161Z" fill="#FFB31E"/>
<path fill-rule="evenodd" clip-rule="evenodd" d="M1309.48 20.2455L1304.87 19.616L1309.48 18.9866L1309.48 20.2455ZM1309.48 18.9866L1314.1 19.616L1309.48 20.2455L1309.48 18.9866Z" fill="#FFB31E"/>
<path fill-rule="evenodd" clip-rule="evenodd" d="M1297.85 47.6161L1298.48 43L1299.11 47.6161L1297.85 47.6161ZM1299.11 47.6161L1298.48 52.2323L1297.85 47.6161L1299.11 47.6161Z" fill="#FFB31E"/>
<path fill-rule="evenodd" clip-rule="evenodd" d="M1298.48 48.2455L1293.87 47.616L1298.48 46.9866L1298.48 48.2455ZM1298.48 46.9866L1303.1 47.616L1298.48 48.2455L1298.48 46.9866Z" fill="#FFB31E"/>
<path fill-rule="evenodd" clip-rule="evenodd" d="M1257.84 16.4273L1259.6 0L1261.39 16.7172L1269.53 10.6083L1263.45 18.7197L1280.1 20.5L1263.8 22.2425L1269.53 30.0559L1261.41 24.0974L1259.6 41L1257.82 24.3811L1250.08 30.0559L1255.78 22.2838L1239.1 20.5L1256.14 18.6784L1250.08 10.6082L1257.84 16.4273Z" fill="#FFB31E"/>
</svg>
