<svg width="1162" height="280" viewBox="0 0 1162 280" fill="none" xmlns="http://www.w3.org/2000/svg">
<path fill-rule="evenodd" clip-rule="evenodd" d="M29.9918 58.1368L27.625 36L25.2165 58.5274L14.2403 50.2953L22.4383 61.2259L0 63.625L21.9618 65.9731L14.2404 76.5022L25.1897 68.4727L27.625 91.25L30.0194 68.855L40.4473 76.5021L32.7669 66.0289L55.25 63.625L32.2909 61.1703L40.4472 50.2952L29.9918 58.1368Z" fill="white"/>
<path fill-rule="evenodd" clip-rule="evenodd" d="M168.256 16.4273L166.5 0L164.713 16.7172L156.567 10.6083L162.651 18.7197L146 20.5L162.297 22.2425L156.568 30.0559L164.693 24.0974L166.5 41L168.277 24.3811L176.015 30.0559L170.316 22.2838L187 20.5L169.962 18.6784L176.015 10.6082L168.256 16.4273Z" fill="white"/>
<path fill-rule="evenodd" clip-rule="evenodd" d="M292.385 51.7954L300.651 41.5503L290.225 49.9621L289.078 41.931L287.935 49.9288L277.55 41.5502L285.751 51.7144L278.12 52.8884L286.055 54.1092L277.55 64.6507L287.915 56.2883L289.078 63.8457L290.245 56.2555L300.651 64.6508L292.078 54.025L300.035 52.8883L292.385 51.7954Z" fill="white"/>
<path fill-rule="evenodd" clip-rule="evenodd" d="M274.942 80.8146L274 72L273.041 80.9702L268.67 77.6922L271.935 82.0447L263 83L271.745 83.935L268.67 88.1276L273.03 84.9303L274 94L274.953 85.0825L279.106 88.1275L276.047 83.9572L285 83L275.858 82.0226L279.106 77.6922L274.942 80.8146Z" fill="white"/>
<path fill-rule="evenodd" clip-rule="evenodd" d="M108.907 31.3121L108.125 24L107.329 31.4412L103.704 28.722L106.412 32.3325L99 33.125L106.254 33.9006L103.704 37.3786L107.321 34.7263L108.125 42.25L108.916 34.8525L112.36 37.3785L109.823 33.919L117.25 33.125L109.666 32.3142L112.36 28.7219L108.907 31.3121Z" fill="white"/>
<path fill-rule="evenodd" clip-rule="evenodd" d="M62.3635 38.4679L63.9167 54L65.4699 38.4679L73.8333 36.5L65.4699 34.5321L63.9167 19L62.3635 34.5321L54 36.5L62.3635 38.4679Z" fill="white"/>
<path fill-rule="evenodd" clip-rule="evenodd" d="M242.363 59.4679L243.917 75L245.47 59.4679L253.833 57.5L245.47 55.5321L243.917 40L242.363 55.5321L234 57.5L242.363 59.4679Z" fill="white"/>
<path fill-rule="evenodd" clip-rule="evenodd" d="M128.018 17.6807L128.95 27L129.882 17.6807L134.9 16.5L129.882 15.3193L128.95 6L128.018 15.3193L123 16.5L128.018 17.6807Z" fill="white"/>
<path fill-rule="evenodd" clip-rule="evenodd" d="M251.795 67.8342L252.5 74.8824L253.205 67.8342L257 66.9412L253.205 66.0482L252.5 59L251.795 66.0482L248 66.9412L251.795 67.8342Z" fill="white"/>
<path fill-rule="evenodd" clip-rule="evenodd" d="M196.011 44.679L197.05 62L198.092 44.6313L202.9 43.5L197.97 42.3401L197.05 27L196.132 42.2924L191 43.5L196.011 44.679Z" fill="white"/>
<path fill-rule="evenodd" clip-rule="evenodd" d="M270.011 28.679L271.05 46L272.092 28.6313L276.9 27.5L271.97 26.3401L271.05 11L270.132 26.2924L265 27.5L270.011 28.679Z" fill="white"/>
<path fill-rule="evenodd" clip-rule="evenodd" d="M314.011 63.679L315.05 81L316.092 63.6313L320.9 62.5L315.97 61.3401L315.05 46L314.132 61.2924L309 62.5L314.011 63.679Z" fill="white"/>
<circle cx="56.5" cy="21.5" r="1.5" fill="white"/>
<circle cx="84.5" cy="24.5" r="1.5" fill="white"/>
<circle cx="80.5" cy="32.5" r="1.5" fill="white"/>
<circle cx="262.5" cy="20.5" r="1.5" fill="white"/>
<circle cx="49.5" cy="12.5" r="4.5" fill="white"/>
<circle cx="225.5" cy="67.5" r="4.5" fill="white"/>
<circle cx="36.5" cy="128.5" r="4.5" fill="white"/>
<circle cx="44" cy="24" r="3" fill="white"/>
<circle cx="90" cy="27" r="3" fill="white"/>
<circle cx="297" cy="75" r="3" fill="white"/>
<circle cx="324" cy="41" r="3" fill="white"/>
<circle cx="138.049" cy="38.049" r="1.5" transform="rotate(120 138.049 38.049)" fill="white"/>
<circle cx="98.049" cy="45.049" r="1.5" transform="rotate(120 98.049 45.049)" fill="white"/>
<circle cx="188.049" cy="35.049" r="1.5" transform="rotate(120 188.049 35.049)" fill="white"/>
<circle cx="228.049" cy="63.049" r="1.5" transform="rotate(120 228.049 63.049)" fill="white"/>
<circle cx="234.049" cy="47.049" r="1.5" transform="rotate(120 234.049 47.049)" fill="white"/>
<circle cx="270.049" cy="55.049" r="1.5" transform="rotate(120 270.049 55.049)" fill="white"/>
<circle cx="307.049" cy="44.049" r="1.5" transform="rotate(120 307.049 44.049)" fill="white"/>
<circle cx="331.049" cy="34.049" r="1.5" transform="rotate(120 331.049 34.049)" fill="white"/>
<circle cx="327.037" cy="26.0368" r="0.758973" transform="rotate(120 327.037 26.0368)" fill="white"/>
<circle cx="127.098" cy="34.0981" r="3" transform="rotate(120 127.098 34.0981)" fill="white"/>
<circle cx="182.098" cy="41.0981" r="3" transform="rotate(120 182.098 41.0981)" fill="white"/>
<circle cx="264.098" cy="61.0981" r="3" transform="rotate(120 264.098 61.0981)" fill="white"/>
<circle cx="217.098" cy="31.0981" r="3" transform="rotate(120 217.098 31.0981)" fill="white"/>
<path fill-rule="evenodd" clip-rule="evenodd" d="M98.0831 14.0831L95.2641 17.7923L98.9733 14.9733L98.0831 14.0831ZM98.9733 14.9733L101.792 11.2641L98.0831 14.0831L98.9733 14.9733Z" fill="white"/>
<path fill-rule="evenodd" clip-rule="evenodd" d="M98.0831 14.0831L95.2641 17.7923L98.9733 14.9733L98.0831 14.0831ZM98.9733 14.9733L101.792 11.2641L98.0831 14.0831L98.9733 14.9733Z" fill="white"/>
<path fill-rule="evenodd" clip-rule="evenodd" d="M98.0831 14.0831L95.2641 17.7923L98.9733 14.9733L98.0831 14.0831ZM98.9733 14.9733L101.792 11.2641L98.0831 14.0831L98.9733 14.9733Z" fill="white"/>
<path fill-rule="evenodd" clip-rule="evenodd" d="M98.0831 14.0831L95.2641 17.7923L98.9733 14.9733L98.0831 14.0831ZM98.9733 14.9733L101.792 11.2641L98.0831 14.0831L98.9733 14.9733Z" fill="white"/>
<path fill-rule="evenodd" clip-rule="evenodd" d="M98.9733 14.0831L95.2641 11.2641L98.0831 14.9733L98.9733 14.0831ZM98.0831 14.9733L101.792 17.7923L98.9733 14.0831L98.0831 14.9733Z" fill="white"/>
<path fill-rule="evenodd" clip-rule="evenodd" d="M98.9733 14.0831L95.2641 11.2641L98.0831 14.9733L98.9733 14.0831ZM98.0831 14.9733L101.792 17.7923L98.9733 14.0831L98.0831 14.9733Z" fill="white"/>
<path fill-rule="evenodd" clip-rule="evenodd" d="M98.9733 14.0831L95.2641 11.2641L98.0831 14.9733L98.9733 14.0831ZM98.0831 14.9733L101.792 17.7923L98.9733 14.0831L98.0831 14.9733Z" fill="white"/>
<path fill-rule="evenodd" clip-rule="evenodd" d="M98.9733 14.0831L95.2641 11.2641L98.0831 14.9733L98.9733 14.0831ZM98.0831 14.9733L101.792 17.7923L98.9733 14.0831L98.0831 14.9733Z" fill="white"/>
<path fill-rule="evenodd" clip-rule="evenodd" d="M153.083 43.0831L150.264 46.7923L153.973 43.9733L153.083 43.0831ZM153.973 43.9733L156.792 40.2641L153.083 43.0831L153.973 43.9733Z" fill="white"/>
<path fill-rule="evenodd" clip-rule="evenodd" d="M153.083 43.0831L150.264 46.7923L153.973 43.9733L153.083 43.0831ZM153.973 43.9733L156.792 40.2641L153.083 43.0831L153.973 43.9733Z" fill="white"/>
<path fill-rule="evenodd" clip-rule="evenodd" d="M153.083 43.0831L150.264 46.7923L153.973 43.9733L153.083 43.0831ZM153.973 43.9733L156.792 40.2641L153.083 43.0831L153.973 43.9733Z" fill="white"/>
<path fill-rule="evenodd" clip-rule="evenodd" d="M153.083 43.0831L150.264 46.7923L153.973 43.9733L153.083 43.0831ZM153.973 43.9733L156.792 40.2641L153.083 43.0831L153.973 43.9733Z" fill="white"/>
<path fill-rule="evenodd" clip-rule="evenodd" d="M153.973 43.0831L150.264 40.2641L153.083 43.9733L153.973 43.0831ZM153.083 43.9733L156.792 46.7923L153.973 43.0831L153.083 43.9733Z" fill="white"/>
<path fill-rule="evenodd" clip-rule="evenodd" d="M153.973 43.0831L150.264 40.2641L153.083 43.9733L153.973 43.0831ZM153.083 43.9733L156.792 46.7923L153.973 43.0831L153.083 43.9733Z" fill="white"/>
<path fill-rule="evenodd" clip-rule="evenodd" d="M153.973 43.0831L150.264 40.2641L153.083 43.9733L153.973 43.0831ZM153.083 43.9733L156.792 46.7923L153.973 43.0831L153.083 43.9733Z" fill="white"/>
<path fill-rule="evenodd" clip-rule="evenodd" d="M153.973 43.0831L150.264 40.2641L153.083 43.9733L153.973 43.0831ZM153.083 43.9733L156.792 46.7923L153.973 43.0831L153.083 43.9733Z" fill="white"/>
<path fill-rule="evenodd" clip-rule="evenodd" d="M331.083 54.0831L328.264 57.7923L331.973 54.9733L331.083 54.0831ZM331.973 54.9733L334.792 51.2641L331.083 54.0831L331.973 54.9733Z" fill="white"/>
<path fill-rule="evenodd" clip-rule="evenodd" d="M331.083 54.0831L328.264 57.7923L331.973 54.9733L331.083 54.0831ZM331.973 54.9733L334.792 51.2641L331.083 54.0831L331.973 54.9733Z" fill="white"/>
<path fill-rule="evenodd" clip-rule="evenodd" d="M331.083 54.0831L328.264 57.7923L331.973 54.9733L331.083 54.0831ZM331.973 54.9733L334.792 51.2641L331.083 54.0831L331.973 54.9733Z" fill="white"/>
<path fill-rule="evenodd" clip-rule="evenodd" d="M331.083 54.0831L328.264 57.7923L331.973 54.9733L331.083 54.0831ZM331.973 54.9733L334.792 51.2641L331.083 54.0831L331.973 54.9733Z" fill="white"/>
<path fill-rule="evenodd" clip-rule="evenodd" d="M331.973 54.0831L328.264 51.2641L331.083 54.9733L331.973 54.0831ZM331.083 54.9733L334.792 57.7923L331.973 54.0831L331.083 54.9733Z" fill="white"/>
<path fill-rule="evenodd" clip-rule="evenodd" d="M331.973 54.0831L328.264 51.2641L331.083 54.9733L331.973 54.0831ZM331.083 54.9733L334.792 57.7923L331.973 54.0831L331.083 54.9733Z" fill="white"/>
<path fill-rule="evenodd" clip-rule="evenodd" d="M331.973 54.0831L328.264 51.2641L331.083 54.9733L331.973 54.0831ZM331.083 54.9733L334.792 57.7923L331.973 54.0831L331.083 54.9733Z" fill="white"/>
<path fill-rule="evenodd" clip-rule="evenodd" d="M331.973 54.0831L328.264 51.2641L331.083 54.9733L331.973 54.0831ZM331.083 54.9733L334.792 57.7923L331.973 54.0831L331.083 54.9733Z" fill="white"/>
<path fill-rule="evenodd" clip-rule="evenodd" d="M209.083 62.0831L206.264 65.7923L209.973 62.9733L209.083 62.0831ZM209.973 62.9733L212.792 59.2641L209.083 62.0831L209.973 62.9733Z" fill="white"/>
<path fill-rule="evenodd" clip-rule="evenodd" d="M209.083 62.0831L206.264 65.7923L209.973 62.9733L209.083 62.0831ZM209.973 62.9733L212.792 59.2641L209.083 62.0831L209.973 62.9733Z" fill="white"/>
<path fill-rule="evenodd" clip-rule="evenodd" d="M209.083 62.0831L206.264 65.7923L209.973 62.9733L209.083 62.0831ZM209.973 62.9733L212.792 59.2641L209.083 62.0831L209.973 62.9733Z" fill="white"/>
<path fill-rule="evenodd" clip-rule="evenodd" d="M209.083 62.0831L206.264 65.7923L209.973 62.9733L209.083 62.0831ZM209.973 62.9733L212.792 59.2641L209.083 62.0831L209.973 62.9733Z" fill="white"/>
<path fill-rule="evenodd" clip-rule="evenodd" d="M209.973 62.0831L206.264 59.2641L209.083 62.9733L209.973 62.0831ZM209.083 62.9733L212.792 65.7923L209.973 62.0831L209.083 62.9733Z" fill="white"/>
<path fill-rule="evenodd" clip-rule="evenodd" d="M209.973 62.0831L206.264 59.2641L209.083 62.9733L209.973 62.0831ZM209.083 62.9733L212.792 65.7923L209.973 62.0831L209.083 62.9733Z" fill="white"/>
<path fill-rule="evenodd" clip-rule="evenodd" d="M209.973 62.0831L206.264 59.2641L209.083 62.9733L209.973 62.0831ZM209.083 62.9733L212.792 65.7923L209.973 62.0831L209.083 62.9733Z" fill="white"/>
<path fill-rule="evenodd" clip-rule="evenodd" d="M209.973 62.0831L206.264 59.2641L209.083 62.9733L209.973 62.0831ZM209.083 62.9733L212.792 65.7923L209.973 62.0831L209.083 62.9733Z" fill="white"/>
<path fill-rule="evenodd" clip-rule="evenodd" d="M53.0831 119.083L50.2641 122.792L53.9733 119.973L53.0831 119.083ZM53.9733 119.973L56.7923 116.264L53.0831 119.083L53.9733 119.973Z" fill="white"/>
<path fill-rule="evenodd" clip-rule="evenodd" d="M53.0831 119.083L50.2641 122.792L53.9733 119.973L53.0831 119.083ZM53.9733 119.973L56.7923 116.264L53.0831 119.083L53.9733 119.973Z" fill="white"/>
<path fill-rule="evenodd" clip-rule="evenodd" d="M53.0831 119.083L50.2641 122.792L53.9733 119.973L53.0831 119.083ZM53.9733 119.973L56.7923 116.264L53.0831 119.083L53.9733 119.973Z" fill="white"/>
<path fill-rule="evenodd" clip-rule="evenodd" d="M53.0831 119.083L50.2641 122.792L53.9733 119.973L53.0831 119.083ZM53.9733 119.973L56.7923 116.264L53.0831 119.083L53.9733 119.973Z" fill="white"/>
<path fill-rule="evenodd" clip-rule="evenodd" d="M53.9733 119.083L50.2641 116.264L53.0831 119.973L53.9733 119.083ZM53.0831 119.973L56.7923 122.792L53.9733 119.083L53.0831 119.973Z" fill="white"/>
<path fill-rule="evenodd" clip-rule="evenodd" d="M53.9733 119.083L50.2641 116.264L53.0831 119.973L53.9733 119.083ZM53.0831 119.973L56.7923 122.792L53.9733 119.083L53.0831 119.973Z" fill="white"/>
<path fill-rule="evenodd" clip-rule="evenodd" d="M53.9733 119.083L50.2641 116.264L53.0831 119.973L53.9733 119.083ZM53.0831 119.973L56.7923 122.792L53.9733 119.083L53.0831 119.973Z" fill="white"/>
<path fill-rule="evenodd" clip-rule="evenodd" d="M53.9733 119.083L50.2641 116.264L53.0831 119.973L53.9733 119.083ZM53.0831 119.973L56.7923 122.792L53.9733 119.083L53.0831 119.973Z" fill="white"/>
<path fill-rule="evenodd" clip-rule="evenodd" d="M122.083 44.0831L119.264 47.7923L122.973 44.9733L122.083 44.0831ZM122.973 44.9733L125.792 41.2641L122.083 44.0831L122.973 44.9733Z" fill="white"/>
<path fill-rule="evenodd" clip-rule="evenodd" d="M122.083 44.0831L119.264 47.7923L122.973 44.9733L122.083 44.0831ZM122.973 44.9733L125.792 41.2641L122.083 44.0831L122.973 44.9733Z" fill="white"/>
<path fill-rule="evenodd" clip-rule="evenodd" d="M122.083 44.0831L119.264 47.7923L122.973 44.9733L122.083 44.0831ZM122.973 44.9733L125.792 41.2641L122.083 44.0831L122.973 44.9733Z" fill="white"/>
<path fill-rule="evenodd" clip-rule="evenodd" d="M122.083 44.0831L119.264 47.7923L122.973 44.9733L122.083 44.0831ZM122.973 44.9733L125.792 41.2641L122.083 44.0831L122.973 44.9733Z" fill="white"/>
<path fill-rule="evenodd" clip-rule="evenodd" d="M122.973 44.0831L119.264 41.2641L122.083 44.9733L122.973 44.0831ZM122.083 44.9733L125.792 47.7923L122.973 44.0831L122.083 44.9733Z" fill="white"/>
<path fill-rule="evenodd" clip-rule="evenodd" d="M122.973 44.0831L119.264 41.2641L122.083 44.9733L122.973 44.0831ZM122.083 44.9733L125.792 47.7923L122.973 44.0831L122.083 44.9733Z" fill="white"/>
<path fill-rule="evenodd" clip-rule="evenodd" d="M122.973 44.0831L119.264 41.2641L122.083 44.9733L122.973 44.0831ZM122.083 44.9733L125.792 47.7923L122.973 44.0831L122.083 44.9733Z" fill="white"/>
<path fill-rule="evenodd" clip-rule="evenodd" d="M122.973 44.0831L119.264 41.2641L122.083 44.9733L122.973 44.0831ZM122.083 44.9733L125.792 47.7923L122.973 44.0831L122.083 44.9733Z" fill="white"/>
<path fill-rule="evenodd" clip-rule="evenodd" d="M18.6338 124.739L24.357 129.357L19.6579 123.533L24.1443 122.892L19.6765 122.254L24.357 116.452L18.679 121.034L18.0232 116.771L17.3412 121.204L11.4523 116.452L16.1239 122.242L11.9021 122.892L16.1422 123.544L11.4523 129.357L17.3882 124.568L18.0232 129.013L18.6338 124.739Z" fill="white"/>
<path fill-rule="evenodd" clip-rule="evenodd" d="M221.634 52.7394L227.357 57.3571L222.658 51.5328L227.144 50.8919L222.676 50.2536L227.357 44.4524L221.679 49.0335L221.023 44.7707L220.341 49.2036L214.452 44.4523L219.124 50.2424L214.902 50.8919L219.142 51.5442L214.452 57.357L220.388 52.5678L221.023 57.013L221.634 52.7394Z" fill="white"/>
<path fill-rule="evenodd" clip-rule="evenodd" d="M235.087 83.9051L239.321 87.3215L235.845 83.0124L239.164 82.5382L235.859 82.0659L239.321 77.7738L235.121 81.1633L234.635 78.0094L234.131 81.2891L229.774 77.7738L233.23 82.0577L230.107 82.5382L233.244 83.0208L229.774 87.3215L234.166 83.7782L234.635 87.067L235.087 83.9051Z" fill="white"/>
<circle cx="47.1213" cy="100.121" r="1.5" transform="rotate(135 47.1213 100.121)" fill="white"/>
<circle cx="3.12129" cy="110.121" r="1.5" transform="rotate(135 3.12129 110.121)" fill="white"/>
<circle cx="7.12129" cy="141.121" r="1.5" transform="rotate(135 7.12129 141.121)" fill="white"/>
<circle cx="17.2426" cy="104.243" r="3" transform="rotate(135 17.2426 104.243)" fill="white"/>
<path fill-rule="evenodd" clip-rule="evenodd" d="M39.2456 111.616L38.6161 107L37.9866 111.616L39.2456 111.616ZM37.9866 111.616L38.6161 116.232L39.2456 111.616L37.9866 111.616Z" fill="white"/>
<path fill-rule="evenodd" clip-rule="evenodd" d="M39.2456 111.616L38.6161 107L37.9866 111.616L39.2456 111.616ZM37.9866 111.616L38.6161 116.232L39.2456 111.616L37.9866 111.616Z" fill="white"/>
<path fill-rule="evenodd" clip-rule="evenodd" d="M39.2456 111.616L38.6161 107L37.9866 111.616L39.2456 111.616ZM37.9866 111.616L38.6161 116.232L39.2456 111.616L37.9866 111.616Z" fill="white"/>
<path fill-rule="evenodd" clip-rule="evenodd" d="M39.2456 111.616L38.6161 107L37.9866 111.616L39.2456 111.616ZM37.9866 111.616L38.6161 116.232L39.2456 111.616L37.9866 111.616Z" fill="white"/>
<path fill-rule="evenodd" clip-rule="evenodd" d="M38.6161 112.246L43.2322 111.616L38.6161 110.987L38.6161 112.246ZM38.6161 110.987L34 111.616L38.6161 112.246L38.6161 110.987Z" fill="white"/>
<path fill-rule="evenodd" clip-rule="evenodd" d="M38.6161 112.246L43.2322 111.616L38.6161 110.987L38.6161 112.246ZM38.6161 110.987L34 111.616L38.6161 112.246L38.6161 110.987Z" fill="white"/>
<path fill-rule="evenodd" clip-rule="evenodd" d="M38.6161 112.246L43.2322 111.616L38.6161 110.987L38.6161 112.246ZM38.6161 110.987L34 111.616L38.6161 112.246L38.6161 110.987Z" fill="white"/>
<path fill-rule="evenodd" clip-rule="evenodd" d="M38.6161 112.246L43.2322 111.616L38.6161 110.987L38.6161 112.246ZM38.6161 110.987L34 111.616L38.6161 112.246L38.6161 110.987Z" fill="white"/>
<path fill-rule="evenodd" clip-rule="evenodd" d="M202.246 80.6161L201.616 76L200.987 80.6161L202.246 80.6161ZM200.987 80.6161L201.616 85.2323L202.246 80.6161L200.987 80.6161Z" fill="white"/>
<path fill-rule="evenodd" clip-rule="evenodd" d="M202.246 80.6161L201.616 76L200.987 80.6161L202.246 80.6161ZM200.987 80.6161L201.616 85.2323L202.246 80.6161L200.987 80.6161Z" fill="white"/>
<path fill-rule="evenodd" clip-rule="evenodd" d="M202.246 80.6161L201.616 76L200.987 80.6161L202.246 80.6161ZM200.987 80.6161L201.616 85.2323L202.246 80.6161L200.987 80.6161Z" fill="white"/>
<path fill-rule="evenodd" clip-rule="evenodd" d="M202.246 80.6161L201.616 76L200.987 80.6161L202.246 80.6161ZM200.987 80.6161L201.616 85.2323L202.246 80.6161L200.987 80.6161Z" fill="white"/>
<path fill-rule="evenodd" clip-rule="evenodd" d="M201.616 81.2456L206.232 80.6161L201.616 79.9866L201.616 81.2456ZM201.616 79.9866L197 80.6161L201.616 81.2456L201.616 79.9866Z" fill="white"/>
<path fill-rule="evenodd" clip-rule="evenodd" d="M201.616 81.2456L206.232 80.6161L201.616 79.9866L201.616 81.2456ZM201.616 79.9866L197 80.6161L201.616 81.2456L201.616 79.9866Z" fill="white"/>
<path fill-rule="evenodd" clip-rule="evenodd" d="M201.616 81.2456L206.232 80.6161L201.616 79.9866L201.616 81.2456ZM201.616 79.9866L197 80.6161L201.616 81.2456L201.616 79.9866Z" fill="white"/>
<path fill-rule="evenodd" clip-rule="evenodd" d="M201.616 81.2456L206.232 80.6161L201.616 79.9866L201.616 81.2456ZM201.616 79.9866L197 80.6161L201.616 81.2456L201.616 79.9866Z" fill="white"/>
<path fill-rule="evenodd" clip-rule="evenodd" d="M28.2456 145.616L27.6161 141L26.9866 145.616L28.2456 145.616ZM26.9866 145.616L27.6161 150.232L28.2456 145.616L26.9866 145.616Z" fill="white"/>
<path fill-rule="evenodd" clip-rule="evenodd" d="M28.2456 145.616L27.6161 141L26.9866 145.616L28.2456 145.616ZM26.9866 145.616L27.6161 150.232L28.2456 145.616L26.9866 145.616Z" fill="white"/>
<path fill-rule="evenodd" clip-rule="evenodd" d="M28.2456 145.616L27.6161 141L26.9866 145.616L28.2456 145.616ZM26.9866 145.616L27.6161 150.232L28.2456 145.616L26.9866 145.616Z" fill="white"/>
<path fill-rule="evenodd" clip-rule="evenodd" d="M28.2456 145.616L27.6161 141L26.9866 145.616L28.2456 145.616ZM26.9866 145.616L27.6161 150.232L28.2456 145.616L26.9866 145.616Z" fill="white"/>
<path fill-rule="evenodd" clip-rule="evenodd" d="M27.6161 146.246L32.2322 145.616L27.6161 144.987L27.6161 146.246ZM27.6161 144.987L23 145.616L27.6161 146.246L27.6161 144.987Z" fill="white"/>
<path fill-rule="evenodd" clip-rule="evenodd" d="M27.6161 146.246L32.2322 145.616L27.6161 144.987L27.6161 146.246ZM27.6161 144.987L23 145.616L27.6161 146.246L27.6161 144.987Z" fill="white"/>
<path fill-rule="evenodd" clip-rule="evenodd" d="M27.6161 146.246L32.2322 145.616L27.6161 144.987L27.6161 146.246ZM27.6161 144.987L23 145.616L27.6161 146.246L27.6161 144.987Z" fill="white"/>
<path fill-rule="evenodd" clip-rule="evenodd" d="M27.6161 146.246L32.2322 145.616L27.6161 144.987L27.6161 146.246ZM27.6161 144.987L23 145.616L27.6161 146.246L27.6161 144.987Z" fill="white"/>
<path fill-rule="evenodd" clip-rule="evenodd" d="M1091.99 49.1368L1089.63 27L1087.22 49.5274L1076.24 41.2953L1084.44 52.2259L1062 54.625L1083.96 56.9731L1076.24 67.5022L1087.19 59.4727L1089.62 82.25L1092.02 59.855L1102.45 67.5021L1094.77 57.0289L1117.25 54.625L1094.29 52.1703L1102.45 41.2952L1091.99 49.1368Z" fill="white"/>
<path fill-rule="evenodd" clip-rule="evenodd" d="M946.385 61.7954L954.651 51.5503L944.225 59.9621L943.078 51.931L941.935 59.9288L931.55 51.5502L939.751 61.7144L932.12 62.8884L940.055 64.1092L931.55 74.6507L941.915 66.2883L943.078 73.8457L944.245 66.2555L954.651 74.6508L946.078 64.025L954.035 62.8883L946.385 61.7954Z" fill="white"/>
<path fill-rule="evenodd" clip-rule="evenodd" d="M878.048 22.2565L883.075 16.0251L876.734 21.1414L876.036 16.2567L875.341 21.1212L869.025 16.0251L874.013 22.2072L869.372 22.9212L874.198 23.6637L869.025 30.0754L875.329 24.9891L876.036 29.5857L876.747 24.9692L883.075 30.0754L877.861 23.6126L882.701 22.9212L878.048 22.2565Z" fill="white"/>
<circle cx="1142.36" cy="127.364" r="4.5" transform="rotate(-135 1142.36 127.364)" fill="white"/>
<circle cx="1051.36" cy="64.3639" r="4.5" transform="rotate(-135 1051.36 64.3639)" fill="white"/>
<circle cx="968.364" cy="47.3639" r="4.5" transform="rotate(-135 968.364 47.3639)" fill="white"/>
<path fill-rule="evenodd" clip-rule="evenodd" d="M1136.62 114.246L1141.23 113.616L1136.62 112.987L1136.62 114.246ZM1136.62 112.987L1132 113.616L1136.62 114.246L1136.62 112.987Z" fill="white"/>
<path fill-rule="evenodd" clip-rule="evenodd" d="M1136.62 114.246L1141.23 113.616L1136.62 112.987L1136.62 114.246ZM1136.62 112.987L1132 113.616L1136.62 114.246L1136.62 112.987Z" fill="white"/>
<path fill-rule="evenodd" clip-rule="evenodd" d="M1136.62 114.246L1141.23 113.616L1136.62 112.987L1136.62 114.246ZM1136.62 112.987L1132 113.616L1136.62 114.246L1136.62 112.987Z" fill="white"/>
<path fill-rule="evenodd" clip-rule="evenodd" d="M1136.62 114.246L1141.23 113.616L1136.62 112.987L1136.62 114.246ZM1136.62 112.987L1132 113.616L1136.62 114.246L1136.62 112.987Z" fill="white"/>
<path fill-rule="evenodd" clip-rule="evenodd" d="M1135.99 113.616L1136.62 118.232L1137.25 113.616L1135.99 113.616ZM1137.25 113.616L1136.62 109L1135.99 113.616L1137.25 113.616Z" fill="white"/>
<path fill-rule="evenodd" clip-rule="evenodd" d="M1135.99 113.616L1136.62 118.232L1137.25 113.616L1135.99 113.616ZM1137.25 113.616L1136.62 109L1135.99 113.616L1137.25 113.616Z" fill="white"/>
<path fill-rule="evenodd" clip-rule="evenodd" d="M1135.99 113.616L1136.62 118.232L1137.25 113.616L1135.99 113.616ZM1137.25 113.616L1136.62 109L1135.99 113.616L1137.25 113.616Z" fill="white"/>
<path fill-rule="evenodd" clip-rule="evenodd" d="M1135.99 113.616L1136.62 118.232L1137.25 113.616L1135.99 113.616ZM1137.25 113.616L1136.62 109L1135.99 113.616L1137.25 113.616Z" fill="white"/>
<path fill-rule="evenodd" clip-rule="evenodd" d="M1015.62 31.2456L1020.23 30.6161L1015.62 29.9867L1015.62 31.2456ZM1015.62 29.9867L1011 30.6161L1015.62 31.2456L1015.62 29.9867Z" fill="white"/>
<path fill-rule="evenodd" clip-rule="evenodd" d="M1015.62 31.2456L1020.23 30.6161L1015.62 29.9867L1015.62 31.2456ZM1015.62 29.9867L1011 30.6161L1015.62 31.2456L1015.62 29.9867Z" fill="white"/>
<path fill-rule="evenodd" clip-rule="evenodd" d="M1015.62 31.2456L1020.23 30.6161L1015.62 29.9867L1015.62 31.2456ZM1015.62 29.9867L1011 30.6161L1015.62 31.2456L1015.62 29.9867Z" fill="white"/>
<path fill-rule="evenodd" clip-rule="evenodd" d="M1015.62 31.2456L1020.23 30.6161L1015.62 29.9867L1015.62 31.2456ZM1015.62 29.9867L1011 30.6161L1015.62 31.2456L1015.62 29.9867Z" fill="white"/>
<path fill-rule="evenodd" clip-rule="evenodd" d="M1014.99 30.6161L1015.62 35.2322L1016.25 30.6161L1014.99 30.6161ZM1016.25 30.6161L1015.62 26L1014.99 30.6161L1016.25 30.6161Z" fill="white"/>
<path fill-rule="evenodd" clip-rule="evenodd" d="M1014.99 30.6161L1015.62 35.2322L1016.25 30.6161L1014.99 30.6161ZM1016.25 30.6161L1015.62 26L1014.99 30.6161L1016.25 30.6161Z" fill="white"/>
<path fill-rule="evenodd" clip-rule="evenodd" d="M1014.99 30.6161L1015.62 35.2322L1016.25 30.6161L1014.99 30.6161ZM1016.25 30.6161L1015.62 26L1014.99 30.6161L1016.25 30.6161Z" fill="white"/>
<path fill-rule="evenodd" clip-rule="evenodd" d="M1014.99 30.6161L1015.62 35.2322L1016.25 30.6161L1014.99 30.6161ZM1016.25 30.6161L1015.62 26L1014.99 30.6161L1016.25 30.6161Z" fill="white"/>
<path fill-rule="evenodd" clip-rule="evenodd" d="M952.616 43.2456L957.232 42.6161L952.616 41.9867L952.616 43.2456ZM952.616 41.9867L948 42.6161L952.616 43.2456L952.616 41.9867Z" fill="white"/>
<path fill-rule="evenodd" clip-rule="evenodd" d="M952.616 43.2456L957.232 42.6161L952.616 41.9867L952.616 43.2456ZM952.616 41.9867L948 42.6161L952.616 43.2456L952.616 41.9867Z" fill="white"/>
<path fill-rule="evenodd" clip-rule="evenodd" d="M952.616 43.2456L957.232 42.6161L952.616 41.9867L952.616 43.2456ZM952.616 41.9867L948 42.6161L952.616 43.2456L952.616 41.9867Z" fill="white"/>
<path fill-rule="evenodd" clip-rule="evenodd" d="M952.616 43.2456L957.232 42.6161L952.616 41.9867L952.616 43.2456ZM952.616 41.9867L948 42.6161L952.616 43.2456L952.616 41.9867Z" fill="white"/>
<path fill-rule="evenodd" clip-rule="evenodd" d="M951.987 42.6161L952.616 47.2322L953.246 42.6161L951.987 42.6161ZM953.246 42.6161L952.616 38L951.987 42.6161L953.246 42.6161Z" fill="white"/>
<path fill-rule="evenodd" clip-rule="evenodd" d="M951.987 42.6161L952.616 47.2322L953.246 42.6161L951.987 42.6161ZM953.246 42.6161L952.616 38L951.987 42.6161L953.246 42.6161Z" fill="white"/>
<path fill-rule="evenodd" clip-rule="evenodd" d="M951.987 42.6161L952.616 47.2322L953.246 42.6161L951.987 42.6161ZM953.246 42.6161L952.616 38L951.987 42.6161L953.246 42.6161Z" fill="white"/>
<path fill-rule="evenodd" clip-rule="evenodd" d="M951.987 42.6161L952.616 47.2322L953.246 42.6161L951.987 42.6161ZM953.246 42.6161L952.616 38L951.987 42.6161L953.246 42.6161Z" fill="white"/>
<path fill-rule="evenodd" clip-rule="evenodd" d="M1151.91 142.312L1151.13 135L1150.33 142.441L1146.7 139.722L1149.41 143.333L1142 144.125L1149.25 144.901L1146.7 148.379L1150.32 145.726L1151.12 153.25L1151.92 145.853L1155.36 148.379L1152.82 144.919L1160.25 144.125L1152.67 143.314L1155.36 139.722L1151.91 142.312Z" fill="white"/>
<path fill-rule="evenodd" clip-rule="evenodd" d="M1047.91 42.3121L1047.13 35L1046.33 42.4412L1042.7 39.722L1045.41 43.3325L1038 44.125L1045.25 44.9006L1042.7 48.3786L1046.32 45.7263L1047.12 53.25L1047.92 45.8525L1051.36 48.3785L1048.82 44.919L1056.25 44.125L1048.67 43.3142L1051.36 39.7219L1047.91 42.3121Z" fill="white"/>
<path fill-rule="evenodd" clip-rule="evenodd" d="M901.907 34.3121L901.125 27L900.329 34.4412L896.704 31.722L899.412 35.3325L892 36.125L899.254 36.9006L896.704 40.3786L900.321 37.7263L901.125 45.25L901.916 37.8525L905.36 40.3785L902.823 36.919L910.25 36.125L902.666 35.3142L905.36 31.7219L901.907 34.3121Z" fill="white"/>
<circle cx="1130.5" cy="144.5" r="1.5" fill="white"/>
<circle cx="1147.5" cy="103.5" r="1.5" fill="white"/>
<circle cx="1031.5" cy="45.5" r="1.5" fill="white"/>
<circle cx="960.5" cy="58.5" r="1.5" fill="white"/>
<circle cx="900.5" cy="55.5" r="1.5" fill="white"/>
<circle cx="1099.5" cy="36.5" r="1.5" fill="white"/>
<circle cx="1139" cy="133" r="3" fill="white"/>
<circle cx="1004" cy="39" r="3" fill="white"/>
<circle cx="925" cy="62" r="3" fill="white"/>
<circle cx="896" cy="47" r="3" fill="white"/>
<path fill-rule="evenodd" clip-rule="evenodd" d="M1126.08 126.083L1123.26 129.792L1126.97 126.973L1126.08 126.083ZM1126.97 126.973L1129.79 123.264L1126.08 126.083L1126.97 126.973Z" fill="white"/>
<path fill-rule="evenodd" clip-rule="evenodd" d="M1126.08 126.083L1123.26 129.792L1126.97 126.973L1126.08 126.083ZM1126.97 126.973L1129.79 123.264L1126.08 126.083L1126.97 126.973Z" fill="white"/>
<path fill-rule="evenodd" clip-rule="evenodd" d="M1126.08 126.083L1123.26 129.792L1126.97 126.973L1126.08 126.083ZM1126.97 126.973L1129.79 123.264L1126.08 126.083L1126.97 126.973Z" fill="white"/>
<path fill-rule="evenodd" clip-rule="evenodd" d="M1126.08 126.083L1123.26 129.792L1126.97 126.973L1126.08 126.083ZM1126.97 126.973L1129.79 123.264L1126.08 126.083L1126.97 126.973Z" fill="white"/>
<path fill-rule="evenodd" clip-rule="evenodd" d="M1126.97 126.083L1123.26 123.264L1126.08 126.973L1126.97 126.083ZM1126.08 126.973L1129.79 129.792L1126.97 126.083L1126.08 126.973Z" fill="white"/>
<path fill-rule="evenodd" clip-rule="evenodd" d="M1126.97 126.083L1123.26 123.264L1126.08 126.973L1126.97 126.083ZM1126.08 126.973L1129.79 129.792L1126.97 126.083L1126.08 126.973Z" fill="white"/>
<path fill-rule="evenodd" clip-rule="evenodd" d="M1126.97 126.083L1123.26 123.264L1126.08 126.973L1126.97 126.083ZM1126.08 126.973L1129.79 129.792L1126.97 126.083L1126.08 126.973Z" fill="white"/>
<path fill-rule="evenodd" clip-rule="evenodd" d="M1126.97 126.083L1123.26 123.264L1126.08 126.973L1126.97 126.083ZM1126.08 126.973L1129.79 129.792L1126.97 126.083L1126.08 126.973Z" fill="white"/>
<path fill-rule="evenodd" clip-rule="evenodd" d="M881.083 45.0831L878.264 48.7923L881.973 45.9733L881.083 45.0831ZM881.973 45.9733L884.792 42.2641L881.083 45.0831L881.973 45.9733Z" fill="white"/>
<path fill-rule="evenodd" clip-rule="evenodd" d="M881.083 45.0831L878.264 48.7923L881.973 45.9733L881.083 45.0831ZM881.973 45.9733L884.792 42.2641L881.083 45.0831L881.973 45.9733Z" fill="white"/>
<path fill-rule="evenodd" clip-rule="evenodd" d="M881.083 45.0831L878.264 48.7923L881.973 45.9733L881.083 45.0831ZM881.973 45.9733L884.792 42.2641L881.083 45.0831L881.973 45.9733Z" fill="white"/>
<path fill-rule="evenodd" clip-rule="evenodd" d="M881.083 45.0831L878.264 48.7923L881.973 45.9733L881.083 45.0831ZM881.973 45.9733L884.792 42.2641L881.083 45.0831L881.973 45.9733Z" fill="white"/>
<path fill-rule="evenodd" clip-rule="evenodd" d="M881.973 45.0831L878.264 42.2641L881.083 45.9733L881.973 45.0831ZM881.083 45.9733L884.792 48.7923L881.973 45.0831L881.083 45.9733Z" fill="white"/>
<path fill-rule="evenodd" clip-rule="evenodd" d="M881.973 45.0831L878.264 42.2641L881.083 45.9733L881.973 45.0831ZM881.083 45.9733L884.792 48.7923L881.973 45.0831L881.083 45.9733Z" fill="white"/>
<path fill-rule="evenodd" clip-rule="evenodd" d="M881.973 45.0831L878.264 42.2641L881.083 45.9733L881.973 45.0831ZM881.083 45.9733L884.792 48.7923L881.973 45.0831L881.083 45.9733Z" fill="white"/>
<path fill-rule="evenodd" clip-rule="evenodd" d="M881.973 45.0831L878.264 42.2641L881.083 45.9733L881.973 45.0831ZM881.083 45.9733L884.792 48.7923L881.973 45.0831L881.083 45.9733Z" fill="white"/>
<path fill-rule="evenodd" clip-rule="evenodd" d="M1076.08 79.0831L1073.26 82.7923L1076.97 79.9733L1076.08 79.0831ZM1076.97 79.9733L1079.79 76.2641L1076.08 79.0831L1076.97 79.9733Z" fill="white"/>
<path fill-rule="evenodd" clip-rule="evenodd" d="M1076.08 79.0831L1073.26 82.7923L1076.97 79.9733L1076.08 79.0831ZM1076.97 79.9733L1079.79 76.2641L1076.08 79.0831L1076.97 79.9733Z" fill="white"/>
<path fill-rule="evenodd" clip-rule="evenodd" d="M1076.08 79.0831L1073.26 82.7923L1076.97 79.9733L1076.08 79.0831ZM1076.97 79.9733L1079.79 76.2641L1076.08 79.0831L1076.97 79.9733Z" fill="white"/>
<path fill-rule="evenodd" clip-rule="evenodd" d="M1076.08 79.0831L1073.26 82.7923L1076.97 79.9733L1076.08 79.0831ZM1076.97 79.9733L1079.79 76.2641L1076.08 79.0831L1076.97 79.9733Z" fill="white"/>
<path fill-rule="evenodd" clip-rule="evenodd" d="M1076.97 79.0831L1073.26 76.2641L1076.08 79.9733L1076.97 79.0831ZM1076.08 79.9733L1079.79 82.7923L1076.97 79.0831L1076.08 79.9733Z" fill="white"/>
<path fill-rule="evenodd" clip-rule="evenodd" d="M1076.97 79.0831L1073.26 76.2641L1076.08 79.9733L1076.97 79.0831ZM1076.08 79.9733L1079.79 82.7923L1076.97 79.0831L1076.08 79.9733Z" fill="white"/>
<path fill-rule="evenodd" clip-rule="evenodd" d="M1076.97 79.0831L1073.26 76.2641L1076.08 79.9733L1076.97 79.0831ZM1076.08 79.9733L1079.79 82.7923L1076.97 79.0831L1076.08 79.9733Z" fill="white"/>
<path fill-rule="evenodd" clip-rule="evenodd" d="M1076.97 79.0831L1073.26 76.2641L1076.08 79.9733L1076.97 79.0831ZM1076.08 79.9733L1079.79 82.7923L1076.97 79.0831L1076.08 79.9733Z" fill="white"/>
<path fill-rule="evenodd" clip-rule="evenodd" d="M978.083 33.0831L975.264 36.7923L978.973 33.9733L978.083 33.0831ZM978.973 33.9733L981.792 30.2641L978.083 33.0831L978.973 33.9733Z" fill="white"/>
<path fill-rule="evenodd" clip-rule="evenodd" d="M978.083 33.0831L975.264 36.7923L978.973 33.9733L978.083 33.0831ZM978.973 33.9733L981.792 30.2641L978.083 33.0831L978.973 33.9733Z" fill="white"/>
<path fill-rule="evenodd" clip-rule="evenodd" d="M978.083 33.0831L975.264 36.7923L978.973 33.9733L978.083 33.0831ZM978.973 33.9733L981.792 30.2641L978.083 33.0831L978.973 33.9733Z" fill="white"/>
<path fill-rule="evenodd" clip-rule="evenodd" d="M978.083 33.0831L975.264 36.7923L978.973 33.9733L978.083 33.0831ZM978.973 33.9733L981.792 30.2641L978.083 33.0831L978.973 33.9733Z" fill="white"/>
<path fill-rule="evenodd" clip-rule="evenodd" d="M978.973 33.0831L975.264 30.2641L978.083 33.9733L978.973 33.0831ZM978.083 33.9733L981.792 36.7923L978.973 33.0831L978.083 33.9733Z" fill="white"/>
<path fill-rule="evenodd" clip-rule="evenodd" d="M978.973 33.0831L975.264 30.2641L978.083 33.9733L978.973 33.0831ZM978.083 33.9733L981.792 36.7923L978.973 33.0831L978.083 33.9733Z" fill="white"/>
<path fill-rule="evenodd" clip-rule="evenodd" d="M978.973 33.0831L975.264 30.2641L978.083 33.9733L978.973 33.0831ZM978.083 33.9733L981.792 36.7923L978.973 33.0831L978.083 33.9733Z" fill="white"/>
<path fill-rule="evenodd" clip-rule="evenodd" d="M978.973 33.0831L975.264 30.2641L978.083 33.9733L978.973 33.0831ZM978.083 33.9733L981.792 36.7923L978.973 33.0831L978.083 33.9733Z" fill="white"/>
<path fill-rule="evenodd" clip-rule="evenodd" d="M1154.08 115.083L1151.26 118.792L1154.97 115.973L1154.08 115.083ZM1154.97 115.973L1157.79 112.264L1154.08 115.083L1154.97 115.973Z" fill="white"/>
<path fill-rule="evenodd" clip-rule="evenodd" d="M1154.08 115.083L1151.26 118.792L1154.97 115.973L1154.08 115.083ZM1154.97 115.973L1157.79 112.264L1154.08 115.083L1154.97 115.973Z" fill="white"/>
<path fill-rule="evenodd" clip-rule="evenodd" d="M1154.08 115.083L1151.26 118.792L1154.97 115.973L1154.08 115.083ZM1154.97 115.973L1157.79 112.264L1154.08 115.083L1154.97 115.973Z" fill="white"/>
<path fill-rule="evenodd" clip-rule="evenodd" d="M1154.08 115.083L1151.26 118.792L1154.97 115.973L1154.08 115.083ZM1154.97 115.973L1157.79 112.264L1154.08 115.083L1154.97 115.973Z" fill="white"/>
<path fill-rule="evenodd" clip-rule="evenodd" d="M1154.97 115.083L1151.26 112.264L1154.08 115.973L1154.97 115.083ZM1154.08 115.973L1157.79 118.792L1154.97 115.083L1154.08 115.973Z" fill="white"/>
<path fill-rule="evenodd" clip-rule="evenodd" d="M1154.97 115.083L1151.26 112.264L1154.08 115.973L1154.97 115.083ZM1154.08 115.973L1157.79 118.792L1154.97 115.083L1154.08 115.973Z" fill="white"/>
<path fill-rule="evenodd" clip-rule="evenodd" d="M1154.97 115.083L1151.26 112.264L1154.08 115.973L1154.97 115.083ZM1154.08 115.973L1157.79 118.792L1154.97 115.083L1154.08 115.973Z" fill="white"/>
<path fill-rule="evenodd" clip-rule="evenodd" d="M1154.97 115.083L1151.26 112.264L1154.08 115.973L1154.97 115.083ZM1154.08 115.973L1157.79 118.792L1154.97 115.083L1154.08 115.973Z" fill="white"/>
<path fill-rule="evenodd" clip-rule="evenodd" d="M1122.01 94.679L1123.05 112L1124.09 94.6313L1128.9 93.5L1123.97 92.3401L1123.05 77L1122.13 92.2924L1117 93.5L1122.01 94.679Z" fill="white"/>
<path fill-rule="evenodd" clip-rule="evenodd" d="M987.011 41.679L988.05 59L989.092 41.6313L993.9 40.5L988.97 39.3401L988.05 24L987.132 39.2924L982 40.5L987.011 41.679Z" fill="white"/>
<path fill-rule="evenodd" clip-rule="evenodd" d="M919.011 22.679L920.05 40L921.092 22.6313L925.9 21.5L920.97 20.3401L920.05 5L919.132 20.2924L914 21.5L919.011 22.679Z" fill="white"/>
<circle cx="1132" cy="72" r="3" fill="white"/>
<circle cx="939" cy="42" r="3" fill="white"/>
<circle cx="1108" cy="33" r="3" fill="white"/>
<circle cx="1033" cy="35" r="3" fill="white"/>
<circle cx="905" cy="21" r="3" fill="white"/>
<circle cx="1139.05" cy="65.049" r="1.5" transform="rotate(120 1139.05 65.049)" fill="white"/>
<circle cx="1101.05" cy="86.049" r="1.5" transform="rotate(120 1101.05 86.049)" fill="white"/>
<circle cx="993.049" cy="18.049" r="1.5" transform="rotate(120 993.049 18.049)" fill="white"/>
<circle cx="889.049" cy="31.049" r="1.5" transform="rotate(120 889.049 31.049)" fill="white"/>
<circle cx="936.049" cy="44.049" r="1.5" transform="rotate(120 936.049 44.049)" fill="white"/>
<circle cx="1007.05" cy="41.049" r="1.5" transform="rotate(120 1007.05 41.049)" fill="white"/>
<circle cx="1025.05" cy="26.049" r="1.5" transform="rotate(120 1025.05 26.049)" fill="white"/>
<circle cx="913.049" cy="32.049" r="1.5" transform="rotate(120 913.049 32.049)" fill="white"/>
<circle cx="972.049" cy="44.049" r="1.5" transform="rotate(120 972.049 44.049)" fill="white"/>
<circle cx="1135.04" cy="57.0368" r="0.758973" transform="rotate(120 1135.04 57.0368)" fill="white"/>
<circle cx="1051.04" cy="30.0368" r="0.758973" transform="rotate(120 1051.04 30.0368)" fill="white"/>
<circle cx="912.037" cy="43.0368" r="0.758973" transform="rotate(120 912.037 43.0368)" fill="white"/>
<circle cx="916.037" cy="36.0368" r="0.758973" transform="rotate(120 916.037 36.0368)" fill="white"/>
<circle cx="886.037" cy="34.0368" r="0.758973" transform="rotate(120 886.037 34.0368)" fill="white"/>
<circle cx="1009.04" cy="19.0368" r="0.758973" transform="rotate(120 1009.04 19.0368)" fill="white"/>
<circle cx="1108.04" cy="43.0368" r="0.758973" transform="rotate(120 1108.04 43.0368)" fill="white"/>
<path fill-rule="evenodd" clip-rule="evenodd" d="M1139.08 85.0831L1136.26 88.7923L1139.97 85.9733L1139.08 85.0831ZM1139.97 85.9733L1142.79 82.2641L1139.08 85.0831L1139.97 85.9733Z" fill="white"/>
<path fill-rule="evenodd" clip-rule="evenodd" d="M1139.08 85.0831L1136.26 88.7923L1139.97 85.9733L1139.08 85.0831ZM1139.97 85.9733L1142.79 82.2641L1139.08 85.0831L1139.97 85.9733Z" fill="white"/>
<path fill-rule="evenodd" clip-rule="evenodd" d="M1139.08 85.0831L1136.26 88.7923L1139.97 85.9733L1139.08 85.0831ZM1139.97 85.9733L1142.79 82.2641L1139.08 85.0831L1139.97 85.9733Z" fill="white"/>
<path fill-rule="evenodd" clip-rule="evenodd" d="M1139.08 85.0831L1136.26 88.7923L1139.97 85.9733L1139.08 85.0831ZM1139.97 85.9733L1142.79 82.2641L1139.08 85.0831L1139.97 85.9733Z" fill="white"/>
<path fill-rule="evenodd" clip-rule="evenodd" d="M1139.97 85.0831L1136.26 82.2641L1139.08 85.9733L1139.97 85.0831ZM1139.08 85.9733L1142.79 88.7923L1139.97 85.0831L1139.08 85.9733Z" fill="white"/>
<path fill-rule="evenodd" clip-rule="evenodd" d="M1139.97 85.0831L1136.26 82.2641L1139.08 85.9733L1139.97 85.0831ZM1139.08 85.9733L1142.79 88.7923L1139.97 85.0831L1139.08 85.9733Z" fill="white"/>
<path fill-rule="evenodd" clip-rule="evenodd" d="M1139.97 85.0831L1136.26 82.2641L1139.08 85.9733L1139.97 85.0831ZM1139.08 85.9733L1142.79 88.7923L1139.97 85.0831L1139.08 85.9733Z" fill="white"/>
<path fill-rule="evenodd" clip-rule="evenodd" d="M1139.97 85.0831L1136.26 82.2641L1139.08 85.9733L1139.97 85.0831ZM1139.08 85.9733L1142.79 88.7923L1139.97 85.0831L1139.08 85.9733Z" fill="white"/>
<path fill-rule="evenodd" clip-rule="evenodd" d="M1000.08 23.0831L997.264 26.7923L1000.97 23.9733L1000.08 23.0831ZM1000.97 23.9733L1003.79 20.2641L1000.08 23.0831L1000.97 23.9733Z" fill="white"/>
<path fill-rule="evenodd" clip-rule="evenodd" d="M1000.08 23.0831L997.264 26.7923L1000.97 23.9733L1000.08 23.0831ZM1000.97 23.9733L1003.79 20.2641L1000.08 23.0831L1000.97 23.9733Z" fill="white"/>
<path fill-rule="evenodd" clip-rule="evenodd" d="M1000.08 23.0831L997.264 26.7923L1000.97 23.9733L1000.08 23.0831ZM1000.97 23.9733L1003.79 20.2641L1000.08 23.0831L1000.97 23.9733Z" fill="white"/>
<path fill-rule="evenodd" clip-rule="evenodd" d="M1000.08 23.0831L997.264 26.7923L1000.97 23.9733L1000.08 23.0831ZM1000.97 23.9733L1003.79 20.2641L1000.08 23.0831L1000.97 23.9733Z" fill="white"/>
<path fill-rule="evenodd" clip-rule="evenodd" d="M1000.97 23.0831L997.264 20.2641L1000.08 23.9733L1000.97 23.0831ZM1000.08 23.9733L1003.79 26.7923L1000.97 23.0831L1000.08 23.9733Z" fill="white"/>
<path fill-rule="evenodd" clip-rule="evenodd" d="M1000.97 23.0831L997.264 20.2641L1000.08 23.9733L1000.97 23.0831ZM1000.08 23.9733L1003.79 26.7923L1000.97 23.0831L1000.08 23.9733Z" fill="white"/>
<path fill-rule="evenodd" clip-rule="evenodd" d="M1000.97 23.0831L997.264 20.2641L1000.08 23.9733L1000.97 23.0831ZM1000.08 23.9733L1003.79 26.7923L1000.97 23.0831L1000.08 23.9733Z" fill="white"/>
<path fill-rule="evenodd" clip-rule="evenodd" d="M1000.97 23.0831L997.264 20.2641L1000.08 23.9733L1000.97 23.0831ZM1000.08 23.9733L1003.79 26.7923L1000.97 23.0831L1000.08 23.9733Z" fill="white"/>
<path fill-rule="evenodd" clip-rule="evenodd" d="M1023.08 42.0831L1020.26 45.7923L1023.97 42.9733L1023.08 42.0831ZM1023.97 42.9733L1026.79 39.2641L1023.08 42.0831L1023.97 42.9733Z" fill="white"/>
<path fill-rule="evenodd" clip-rule="evenodd" d="M1023.08 42.0831L1020.26 45.7923L1023.97 42.9733L1023.08 42.0831ZM1023.97 42.9733L1026.79 39.2641L1023.08 42.0831L1023.97 42.9733Z" fill="white"/>
<path fill-rule="evenodd" clip-rule="evenodd" d="M1023.08 42.0831L1020.26 45.7923L1023.97 42.9733L1023.08 42.0831ZM1023.97 42.9733L1026.79 39.2641L1023.08 42.0831L1023.97 42.9733Z" fill="white"/>
<path fill-rule="evenodd" clip-rule="evenodd" d="M1023.08 42.0831L1020.26 45.7923L1023.97 42.9733L1023.08 42.0831ZM1023.97 42.9733L1026.79 39.2641L1023.08 42.0831L1023.97 42.9733Z" fill="white"/>
<path fill-rule="evenodd" clip-rule="evenodd" d="M1023.97 42.0831L1020.26 39.2641L1023.08 42.9733L1023.97 42.0831ZM1023.08 42.9733L1026.79 45.7923L1023.97 42.0831L1023.08 42.9733Z" fill="white"/>
<path fill-rule="evenodd" clip-rule="evenodd" d="M1023.97 42.0831L1020.26 39.2641L1023.08 42.9733L1023.97 42.0831ZM1023.08 42.9733L1026.79 45.7923L1023.97 42.0831L1023.08 42.9733Z" fill="white"/>
<path fill-rule="evenodd" clip-rule="evenodd" d="M1023.97 42.0831L1020.26 39.2641L1023.08 42.9733L1023.97 42.0831ZM1023.08 42.9733L1026.79 45.7923L1023.97 42.0831L1023.08 42.9733Z" fill="white"/>
<path fill-rule="evenodd" clip-rule="evenodd" d="M1023.97 42.0831L1020.26 39.2641L1023.08 42.9733L1023.97 42.0831ZM1023.08 42.9733L1026.79 45.7923L1023.97 42.0831L1023.08 42.9733Z" fill="white"/>
<path fill-rule="evenodd" clip-rule="evenodd" d="M913.083 52.0831L910.264 55.7923L913.973 52.9733L913.083 52.0831ZM913.973 52.9733L916.792 49.2641L913.083 52.0831L913.973 52.9733Z" fill="white"/>
<path fill-rule="evenodd" clip-rule="evenodd" d="M913.083 52.0831L910.264 55.7923L913.973 52.9733L913.083 52.0831ZM913.973 52.9733L916.792 49.2641L913.083 52.0831L913.973 52.9733Z" fill="white"/>
<path fill-rule="evenodd" clip-rule="evenodd" d="M913.083 52.0831L910.264 55.7923L913.973 52.9733L913.083 52.0831ZM913.973 52.9733L916.792 49.2641L913.083 52.0831L913.973 52.9733Z" fill="white"/>
<path fill-rule="evenodd" clip-rule="evenodd" d="M913.083 52.0831L910.264 55.7923L913.973 52.9733L913.083 52.0831ZM913.973 52.9733L916.792 49.2641L913.083 52.0831L913.973 52.9733Z" fill="white"/>
<path fill-rule="evenodd" clip-rule="evenodd" d="M913.973 52.0831L910.264 49.2641L913.083 52.9733L913.973 52.0831ZM913.083 52.9733L916.792 55.7923L913.973 52.0831L913.083 52.9733Z" fill="white"/>
<path fill-rule="evenodd" clip-rule="evenodd" d="M913.973 52.0831L910.264 49.2641L913.083 52.9733L913.973 52.0831ZM913.083 52.9733L916.792 55.7923L913.973 52.0831L913.083 52.9733Z" fill="white"/>
<path fill-rule="evenodd" clip-rule="evenodd" d="M913.973 52.0831L910.264 49.2641L913.083 52.9733L913.973 52.0831ZM913.083 52.9733L916.792 55.7923L913.973 52.0831L913.083 52.9733Z" fill="white"/>
<path fill-rule="evenodd" clip-rule="evenodd" d="M913.973 52.0831L910.264 49.2641L913.083 52.9733L913.973 52.0831ZM913.083 52.9733L916.792 55.7923L913.973 52.0831L913.083 52.9733Z" fill="white"/>
<path fill-rule="evenodd" clip-rule="evenodd" d="M1065.01 32.679L1066.05 50L1067.09 32.6313L1071.9 31.5L1066.97 30.3401L1066.05 15L1065.13 30.2924L1060 31.5L1065.01 32.679Z" fill="white"/>
<path fill-rule="evenodd" clip-rule="evenodd" d="M1109.8 71.8342L1110.5 78.8824L1111.2 71.8342L1115 70.9412L1111.2 70.0482L1110.5 63L1109.8 70.0482L1106 70.9412L1109.8 71.8342Z" fill="white"/>
<path fill-rule="evenodd" clip-rule="evenodd" d="M925.795 44.8342L926.5 51.8824L927.205 44.8342L931 43.9412L927.205 43.0482L926.5 36L925.795 43.0482L922 43.9412L925.795 44.8342Z" fill="white"/>
<path fill-rule="evenodd" clip-rule="evenodd" d="M1141.25 160.616L1140.62 156L1139.99 160.616L1141.25 160.616ZM1139.99 160.616L1140.62 165.232L1141.25 160.616L1139.99 160.616Z" fill="white"/>
<path fill-rule="evenodd" clip-rule="evenodd" d="M1141.25 160.616L1140.62 156L1139.99 160.616L1141.25 160.616ZM1139.99 160.616L1140.62 165.232L1141.25 160.616L1139.99 160.616Z" fill="white"/>
<path fill-rule="evenodd" clip-rule="evenodd" d="M1141.25 160.616L1140.62 156L1139.99 160.616L1141.25 160.616ZM1139.99 160.616L1140.62 165.232L1141.25 160.616L1139.99 160.616Z" fill="white"/>
<path fill-rule="evenodd" clip-rule="evenodd" d="M1141.25 160.616L1140.62 156L1139.99 160.616L1141.25 160.616ZM1139.99 160.616L1140.62 165.232L1141.25 160.616L1139.99 160.616Z" fill="white"/>
<path fill-rule="evenodd" clip-rule="evenodd" d="M1140.62 161.246L1145.23 160.616L1140.62 159.987L1140.62 161.246ZM1140.62 159.987L1136 160.616L1140.62 161.246L1140.62 159.987Z" fill="white"/>
<path fill-rule="evenodd" clip-rule="evenodd" d="M1140.62 161.246L1145.23 160.616L1140.62 159.987L1140.62 161.246ZM1140.62 159.987L1136 160.616L1140.62 161.246L1140.62 159.987Z" fill="white"/>
<path fill-rule="evenodd" clip-rule="evenodd" d="M1140.62 161.246L1145.23 160.616L1140.62 159.987L1140.62 161.246ZM1140.62 159.987L1136 160.616L1140.62 161.246L1140.62 159.987Z" fill="white"/>
<path fill-rule="evenodd" clip-rule="evenodd" d="M1140.62 161.246L1145.23 160.616L1140.62 159.987L1140.62 161.246ZM1140.62 159.987L1136 160.616L1140.62 161.246L1140.62 159.987Z" fill="white"/>
<path d="M347.141 269.721C345.461 269.721 343.981 269.428 342.701 268.841C341.421 268.255 340.435 267.441 339.741 266.401C339.048 265.335 338.701 264.108 338.701 262.721C338.701 261.548 338.941 260.481 339.421 259.521C339.928 258.561 340.595 257.801 341.421 257.241C342.275 256.681 343.208 256.401 344.221 256.401C345.155 256.401 345.941 256.641 346.581 257.121C347.221 257.575 347.621 258.215 347.781 259.041C346.395 259.041 345.288 259.415 344.461 260.161C343.635 260.881 343.221 261.868 343.221 263.121C343.221 264.268 343.568 265.188 344.261 265.881C344.955 266.575 345.875 266.921 347.021 266.921C348.435 266.921 349.595 266.455 350.501 265.521C351.435 264.561 351.901 263.361 351.901 261.921C351.901 260.668 351.555 259.481 350.861 258.361C350.168 257.241 349.128 255.881 347.741 254.281C346.301 252.628 345.208 251.215 344.461 250.041C343.741 248.841 343.381 247.535 343.381 246.121C343.381 244.735 343.768 243.495 344.541 242.401C345.315 241.281 346.381 240.401 347.741 239.761C349.101 239.121 350.635 238.801 352.341 238.801C354.501 238.801 356.221 239.308 357.501 240.321C358.808 241.335 359.461 242.695 359.461 244.401C359.461 245.521 359.181 246.428 358.621 247.121C358.061 247.815 357.328 248.161 356.421 248.161C355.408 248.161 354.595 247.748 353.981 246.921C354.488 246.548 354.888 246.055 355.181 245.441C355.475 244.828 355.621 244.188 355.621 243.521C355.621 242.668 355.368 241.988 354.861 241.481C354.355 240.975 353.661 240.721 352.781 240.721C351.715 240.721 350.835 241.108 350.141 241.881C349.475 242.628 349.141 243.588 349.141 244.761C349.141 245.828 349.448 246.828 350.061 247.761C350.675 248.668 351.635 249.841 352.941 251.281C354.008 252.428 354.861 253.415 355.501 254.241C356.168 255.068 356.728 256.028 357.181 257.121C357.661 258.188 357.901 259.348 357.901 260.601C357.901 262.308 357.421 263.855 356.461 265.241C355.528 266.628 354.235 267.721 352.581 268.521C350.955 269.321 349.141 269.721 347.141 269.721Z" fill="white"/>
<path d="M365.634 246.841C364.754 246.841 364.007 246.535 363.394 245.921C362.781 245.308 362.474 244.561 362.474 243.681C362.474 242.801 362.781 242.055 363.394 241.441C364.007 240.801 364.754 240.481 365.634 240.481C366.514 240.481 367.261 240.801 367.874 241.441C368.514 242.055 368.834 242.801 368.834 243.681C368.834 244.561 368.514 245.308 367.874 245.921C367.261 246.535 366.514 246.841 365.634 246.841ZM362.914 269.241C361.634 269.241 360.594 268.841 359.794 268.041C359.021 267.241 358.634 266.041 358.634 264.441C358.634 263.775 358.741 262.908 358.954 261.841L361.674 249.001H367.434L364.554 262.601C364.447 263.001 364.394 263.428 364.394 263.881C364.394 264.415 364.514 264.801 364.754 265.041C365.021 265.255 365.447 265.361 366.034 265.361C366.807 265.361 367.527 265.041 368.194 264.401C368.861 263.735 369.341 262.881 369.634 261.841H371.314C370.327 264.721 369.061 266.681 367.514 267.721C365.967 268.735 364.434 269.241 362.914 269.241Z" fill="white"/>
<path d="M382.858 269.241C381.231 269.241 380.031 268.815 379.258 267.961C378.511 267.081 378.138 266.001 378.138 264.721C378.138 264.161 378.205 263.535 378.338 262.841C378.471 262.121 378.605 261.428 378.738 260.761C378.898 260.095 379.005 259.668 379.058 259.481C379.271 258.548 379.471 257.628 379.658 256.721C379.845 255.815 379.938 255.081 379.938 254.521C379.938 253.161 379.458 252.481 378.498 252.481C377.805 252.481 377.191 252.828 376.658 253.521C376.125 254.188 375.698 255.068 375.378 256.161L372.658 269.001H366.898L371.138 249.001H376.898L376.458 251.081C377.791 249.588 379.351 248.841 381.138 248.841C382.498 248.841 383.578 249.215 384.378 249.961C385.178 250.708 385.578 251.841 385.578 253.361C385.578 254.135 385.485 255.001 385.298 255.961C385.111 256.895 384.845 258.041 384.498 259.401C384.285 260.228 384.085 261.041 383.898 261.841C383.738 262.615 383.658 263.228 383.658 263.681C383.658 264.215 383.778 264.628 384.018 264.921C384.258 265.215 384.671 265.361 385.258 265.361C386.058 265.361 386.698 265.081 387.178 264.521C387.658 263.935 388.138 263.041 388.618 261.841H390.298C389.311 264.775 388.165 266.748 386.858 267.761C385.578 268.748 384.245 269.241 382.858 269.241Z" fill="white"/>
<path d="M393.133 269.241C391.16 269.241 389.627 268.735 388.533 267.721C387.44 266.681 386.893 265.068 386.893 262.881C386.893 261.041 387.253 259.015 387.973 256.801C388.72 254.588 389.893 252.681 391.493 251.081C393.12 249.455 395.173 248.641 397.653 248.641C399.253 248.641 400.387 248.988 401.053 249.681C401.747 250.375 402.093 251.255 402.093 252.321C402.093 253.255 401.893 253.975 401.493 254.481C401.093 254.988 400.587 255.241 399.973 255.241C399.52 255.241 399.053 255.081 398.573 254.761C398.893 253.881 399.053 253.095 399.053 252.401C399.053 251.895 398.96 251.495 398.773 251.201C398.587 250.908 398.307 250.761 397.933 250.761C397.133 250.761 396.333 251.415 395.533 252.721C394.733 254.028 394.08 255.615 393.573 257.481C393.067 259.348 392.813 261.028 392.813 262.521C392.813 263.828 393.04 264.721 393.493 265.201C393.947 265.655 394.68 265.881 395.693 265.881C397.133 265.881 398.36 265.548 399.373 264.881C400.413 264.215 401.547 263.201 402.773 261.841H404.133C401.173 266.775 397.507 269.241 393.133 269.241Z" fill="white"/>
<path d="M407.205 269.241C405.258 269.241 403.738 268.735 402.645 267.721C401.551 266.681 401.005 265.068 401.005 262.881C401.005 261.041 401.365 259.015 402.085 256.801C402.805 254.588 403.978 252.681 405.605 251.081C407.231 249.455 409.298 248.641 411.805 248.641C414.738 248.641 416.205 249.921 416.205 252.481C416.205 253.975 415.778 255.348 414.925 256.601C414.071 257.855 412.938 258.868 411.525 259.641C410.111 260.388 408.605 260.815 407.005 260.921C406.951 261.508 406.925 261.908 406.925 262.121C406.925 264.335 407.751 265.441 409.405 265.441C410.151 265.441 410.951 265.241 411.805 264.841C412.658 264.441 413.431 263.935 414.125 263.321C413.405 267.268 411.098 269.241 407.205 269.241ZM407.285 259.001C408.298 258.975 409.245 258.641 410.125 258.001C411.031 257.361 411.751 256.548 412.285 255.561C412.845 254.548 413.125 253.495 413.125 252.401C413.125 251.308 412.791 250.761 412.125 250.761C411.191 250.761 410.258 251.615 409.325 253.321C408.418 255.001 407.738 256.895 407.285 259.001Z" fill="white"/>
<path d="M436.245 256.681L432.405 241.681C430.512 242.401 429.045 243.521 428.005 245.041C426.965 246.535 426.445 248.375 426.445 250.561C426.445 251.548 426.538 252.241 426.725 252.641C426.912 253.015 427.005 253.228 427.005 253.281C425.565 253.281 424.485 252.988 423.765 252.401C423.072 251.788 422.725 250.788 422.725 249.401C422.725 247.695 423.418 246.041 424.805 244.441C426.218 242.815 428.018 241.508 430.205 240.521C432.392 239.508 434.578 239.001 436.765 239.001C437.138 239.001 437.672 239.028 438.365 239.081L441.845 253.401L447.765 239.201H450.405L442.645 256.681L440.005 269.001H433.605L436.245 256.681Z" fill="white"/>
<path d="M451.93 269.161C449.956 269.161 448.396 268.655 447.25 267.641C446.103 266.628 445.53 265.028 445.53 262.841C445.53 261.028 445.903 259.015 446.65 256.801C447.396 254.588 448.596 252.681 450.25 251.081C451.903 249.455 453.983 248.641 456.49 248.641C459.903 248.641 461.61 250.775 461.61 255.041V255.081C461.69 255.108 461.836 255.121 462.05 255.121C462.93 255.121 463.943 254.895 465.09 254.441C466.236 253.961 467.276 253.388 468.21 252.721L468.57 253.801C467.796 254.628 466.783 255.335 465.53 255.921C464.303 256.481 462.956 256.881 461.49 257.121C461.276 259.548 460.73 261.668 459.85 263.481C458.97 265.295 457.836 266.695 456.45 267.681C455.063 268.668 453.556 269.161 451.93 269.161ZM453.53 265.561C454.17 265.561 454.81 265.201 455.45 264.481C456.09 263.735 456.65 262.735 457.13 261.481C457.61 260.201 457.956 258.788 458.17 257.241C457.45 257.081 457.09 256.521 457.09 255.561C457.09 254.468 457.503 253.748 458.33 253.401C458.276 252.521 458.143 251.921 457.93 251.601C457.716 251.255 457.343 251.081 456.81 251.081C455.93 251.081 455.076 251.721 454.25 253.001C453.423 254.281 452.756 255.815 452.25 257.601C451.743 259.388 451.49 260.961 451.49 262.321C451.49 263.601 451.636 264.468 451.93 264.921C452.223 265.348 452.756 265.561 453.53 265.561Z" fill="white"/>
<path d="M466.428 269.241C465.148 269.241 464.108 268.841 463.308 268.041C462.535 267.241 462.148 266.041 462.148 264.441C462.148 263.775 462.255 262.908 462.468 261.841L465.188 249.001H470.948L468.068 262.601C467.988 263.001 467.948 263.375 467.948 263.721C467.948 264.815 468.348 265.361 469.148 265.361C469.895 265.361 470.535 265.055 471.068 264.441C471.601 263.801 472.028 262.935 472.348 261.841L475.068 249.001H480.828L477.948 262.601C477.841 263.001 477.788 263.428 477.788 263.881C477.788 264.415 477.908 264.801 478.148 265.041C478.415 265.255 478.841 265.361 479.428 265.361C480.175 265.361 480.815 265.041 481.348 264.401C481.908 263.761 482.348 262.908 482.668 261.841H484.348C483.361 264.721 482.135 266.681 480.668 267.721C479.228 268.735 477.775 269.241 476.308 269.241C475.161 269.241 474.241 268.921 473.548 268.281C472.881 267.641 472.481 266.695 472.348 265.441C471.441 266.908 470.481 267.908 469.468 268.441C468.481 268.975 467.468 269.241 466.428 269.241Z" fill="white"/>
<path d="M484.183 249.001H489.943L489.423 251.481C490.33 250.681 491.143 250.068 491.863 249.641C492.61 249.215 493.41 249.001 494.263 249.001C495.117 249.001 495.783 249.295 496.263 249.881C496.77 250.468 497.023 251.175 497.023 252.001C497.023 252.775 496.77 253.455 496.263 254.041C495.757 254.628 495.05 254.921 494.143 254.921C493.557 254.921 493.157 254.788 492.943 254.521C492.757 254.228 492.61 253.815 492.503 253.281C492.423 252.935 492.343 252.681 492.263 252.521C492.183 252.361 492.037 252.281 491.823 252.281C491.263 252.281 490.783 252.401 490.383 252.641C490.01 252.855 489.517 253.241 488.903 253.801L485.703 269.001H479.943L484.183 249.001Z" fill="white"/>
<path d="M512.694 241.681C510.801 242.401 509.334 243.521 508.294 245.041C507.254 246.535 506.734 248.375 506.734 250.561C506.734 251.548 506.828 252.241 507.014 252.641C507.201 253.015 507.294 253.228 507.294 253.281C505.854 253.281 504.774 252.988 504.054 252.401C503.361 251.788 503.014 250.788 503.014 249.401C503.014 247.695 503.708 246.041 505.094 244.441C506.508 242.815 508.308 241.508 510.494 240.521C512.681 239.508 514.868 239.001 517.054 239.001C517.428 239.001 517.961 239.028 518.654 239.081L519.014 263.681L527.414 239.201H532.494L532.854 263.681L541.254 239.201H544.054L532.934 269.001H527.174L526.694 248.641L519.094 269.001H513.334L512.694 241.681Z" fill="white"/>
<path d="M545.891 269.161C543.917 269.161 542.357 268.655 541.211 267.641C540.064 266.628 539.491 265.028 539.491 262.841C539.491 261.028 539.864 259.015 540.611 256.801C541.357 254.588 542.557 252.681 544.211 251.081C545.864 249.455 547.944 248.641 550.451 248.641C553.864 248.641 555.571 250.775 555.571 255.041V255.081C555.651 255.108 555.797 255.121 556.011 255.121C556.891 255.121 557.904 254.895 559.051 254.441C560.197 253.961 561.237 253.388 562.171 252.721L562.531 253.801C561.757 254.628 560.744 255.335 559.491 255.921C558.264 256.481 556.917 256.881 555.451 257.121C555.237 259.548 554.691 261.668 553.811 263.481C552.931 265.295 551.797 266.695 550.411 267.681C549.024 268.668 547.517 269.161 545.891 269.161ZM547.491 265.561C548.131 265.561 548.771 265.201 549.411 264.481C550.051 263.735 550.611 262.735 551.091 261.481C551.571 260.201 551.917 258.788 552.131 257.241C551.411 257.081 551.051 256.521 551.051 255.561C551.051 254.468 551.464 253.748 552.291 253.401C552.237 252.521 552.104 251.921 551.891 251.601C551.677 251.255 551.304 251.081 550.771 251.081C549.891 251.081 549.037 251.721 548.211 253.001C547.384 254.281 546.717 255.815 546.211 257.601C545.704 259.388 545.451 260.961 545.451 262.321C545.451 263.601 545.597 264.468 545.891 264.921C546.184 265.348 546.717 265.561 547.491 265.561Z" fill="white"/>
<path d="M559.149 249.001H564.909L564.389 251.481C565.296 250.681 566.109 250.068 566.829 249.641C567.576 249.215 568.376 249.001 569.229 249.001C570.082 249.001 570.749 249.295 571.229 249.881C571.736 250.468 571.989 251.175 571.989 252.001C571.989 252.775 571.736 253.455 571.229 254.041C570.722 254.628 570.016 254.921 569.109 254.921C568.522 254.921 568.122 254.788 567.909 254.521C567.722 254.228 567.576 253.815 567.469 253.281C567.389 252.935 567.309 252.681 567.229 252.521C567.149 252.361 567.002 252.281 566.789 252.281C566.229 252.281 565.749 252.401 565.349 252.641C564.976 252.855 564.482 253.241 563.869 253.801L560.669 269.001H554.909L559.149 249.001Z" fill="white"/>
<path d="M574.228 269.241C572.948 269.241 571.908 268.841 571.108 268.041C570.335 267.241 569.948 266.041 569.948 264.441C569.948 263.775 570.055 262.908 570.268 261.841L574.548 241.801L580.468 241.001L575.868 262.601C575.761 263.001 575.708 263.428 575.708 263.881C575.708 264.415 575.828 264.801 576.068 265.041C576.335 265.255 576.761 265.361 577.348 265.361C578.121 265.361 578.841 265.041 579.508 264.401C580.175 263.735 580.655 262.881 580.948 261.841H582.628C581.641 264.721 580.375 266.681 578.828 267.721C577.281 268.735 575.748 269.241 574.228 269.241Z" fill="white"/>
<path d="M584.532 269.241C583.012 269.241 581.745 268.721 580.732 267.681C579.719 266.641 579.212 265.015 579.212 262.801C579.212 260.828 579.599 258.761 580.372 256.601C581.172 254.415 582.345 252.575 583.892 251.081C585.465 249.561 587.332 248.801 589.492 248.801C590.585 248.801 591.399 248.988 591.932 249.361C592.465 249.735 592.732 250.228 592.732 250.841V251.001L594.692 241.801L600.612 241.001L596.012 262.601C595.905 263.001 595.852 263.388 595.852 263.761C595.852 264.828 596.399 265.361 597.492 265.361C597.972 265.361 598.399 265.281 598.772 265.121C598.665 266.455 598.185 267.481 597.332 268.201C596.505 268.895 595.519 269.241 594.372 269.241C593.305 269.241 592.399 268.975 591.652 268.441C590.932 267.881 590.452 267.041 590.212 265.921C588.612 268.135 586.719 269.241 584.532 269.241ZM587.132 265.361C587.719 265.361 588.305 265.108 588.892 264.601C589.505 264.095 589.959 263.388 590.252 262.481L590.412 261.841L592.372 252.681C592.132 251.748 591.585 251.281 590.732 251.281C589.665 251.281 588.705 251.908 587.852 253.161C586.999 254.388 586.332 255.881 585.852 257.641C585.372 259.375 585.132 260.908 585.132 262.241C585.132 263.575 585.319 264.428 585.692 264.801C586.092 265.175 586.572 265.361 587.132 265.361Z" fill="white"/>
<path d="M620.507 269.681C619.441 269.681 618.507 269.455 617.707 269.001C616.934 268.575 616.547 267.815 616.547 266.721C616.547 266.028 616.721 265.255 617.067 264.401C617.547 264.935 617.987 265.308 618.387 265.521C618.814 265.735 619.267 265.841 619.747 265.841C621.081 265.841 622.067 265.095 622.707 263.601C623.374 262.108 623.707 260.455 623.707 258.641C623.707 255.255 622.441 253.561 619.907 253.561C619.187 253.561 618.574 253.601 618.067 253.681L614.787 269.001H609.027L614.467 243.561L620.387 242.761L618.507 251.641H618.747C619.761 251.641 620.707 251.321 621.587 250.681C622.467 250.015 623.174 249.188 623.707 248.201C624.241 247.188 624.507 246.175 624.507 245.161C624.507 243.935 624.067 242.908 623.187 242.081C622.334 241.255 621.014 240.841 619.227 240.841C617.601 240.841 616.014 241.215 614.467 241.961C612.921 242.681 611.654 243.775 610.667 245.241C609.707 246.708 609.227 248.481 609.227 250.561C609.227 251.548 609.321 252.241 609.507 252.641C609.694 253.015 609.787 253.228 609.787 253.281C608.374 253.281 607.307 253.001 606.587 252.441C605.867 251.855 605.507 250.908 605.507 249.601C605.507 247.788 606.187 246.068 607.547 244.441C608.907 242.815 610.707 241.508 612.947 240.521C615.187 239.508 617.547 239.001 620.027 239.001C621.894 239.001 623.467 239.295 624.747 239.881C626.027 240.468 626.974 241.241 627.587 242.201C628.227 243.161 628.547 244.215 628.547 245.361C628.547 246.588 628.201 247.775 627.507 248.921C626.814 250.068 625.827 251.001 624.547 251.721C626.147 252.015 627.334 252.761 628.107 253.961C628.881 255.135 629.267 256.535 629.267 258.161C629.267 259.681 628.974 261.335 628.387 263.121C627.827 264.908 626.881 266.455 625.547 267.761C624.241 269.041 622.561 269.681 620.507 269.681Z" fill="white"/>
<path d="M635.172 269.241C633.199 269.241 631.666 268.735 630.572 267.721C629.479 266.681 628.932 265.068 628.932 262.881C628.932 261.041 629.292 259.015 630.012 256.801C630.732 254.588 631.906 252.681 633.532 251.081C635.159 249.455 637.226 248.641 639.732 248.641C642.666 248.641 644.132 249.921 644.132 252.481C644.132 253.975 643.706 255.348 642.852 256.601C641.999 257.855 640.866 258.868 639.452 259.641C638.039 260.388 636.532 260.815 634.932 260.921C634.879 261.721 634.852 262.255 634.852 262.521C634.852 263.828 635.079 264.721 635.532 265.201C635.986 265.655 636.719 265.881 637.732 265.881C639.172 265.881 640.399 265.548 641.412 264.881C642.452 264.215 643.586 263.201 644.812 261.841H646.172C643.212 266.775 639.546 269.241 635.172 269.241ZM635.252 259.001C636.239 258.948 637.172 258.601 638.052 257.961C638.959 257.321 639.679 256.508 640.212 255.521C640.772 254.535 641.052 253.495 641.052 252.401C641.052 251.308 640.719 250.761 640.052 250.761C639.092 250.761 638.146 251.601 637.212 253.281C636.306 254.961 635.652 256.868 635.252 259.001Z" fill="white"/>
<path d="M650.684 279.001C649.404 279.001 648.337 278.668 647.484 278.001C646.631 277.335 646.204 276.375 646.204 275.121C646.204 273.601 646.817 272.375 648.044 271.441C649.271 270.535 650.831 269.775 652.724 269.161L653.204 267.041C651.844 268.508 650.244 269.241 648.404 269.241C646.884 269.241 645.617 268.721 644.604 267.681C643.591 266.641 643.084 265.015 643.084 262.801C643.084 260.828 643.471 258.761 644.244 256.601C645.044 254.415 646.217 252.575 647.764 251.081C649.337 249.561 651.204 248.801 653.364 248.801C654.457 248.801 655.271 248.988 655.804 249.361C656.337 249.735 656.604 250.228 656.604 250.841V251.081L657.044 249.001H662.804L658.844 267.561C660.124 267.135 661.151 266.495 661.924 265.641C662.697 264.788 663.351 263.521 663.884 261.841H665.564C664.844 264.215 663.871 265.961 662.644 267.081C661.417 268.175 660.031 268.921 658.484 269.321L657.884 272.201C657.351 274.788 656.431 276.561 655.124 277.521C653.817 278.508 652.337 279.001 650.684 279.001ZM651.004 265.361C651.617 265.361 652.244 265.081 652.884 264.521C653.524 263.961 653.964 263.201 654.204 262.241L656.244 252.761C656.244 252.441 656.111 252.121 655.844 251.801C655.577 251.455 655.164 251.281 654.604 251.281C653.537 251.281 652.577 251.908 651.724 253.161C650.871 254.388 650.204 255.881 649.724 257.641C649.244 259.375 649.004 260.908 649.004 262.241C649.004 263.575 649.191 264.428 649.564 264.801C649.964 265.175 650.444 265.361 651.004 265.361ZM649.764 275.881C650.217 275.881 650.657 275.575 651.084 274.961C651.511 274.348 651.844 273.468 652.084 272.321L652.324 271.161C649.711 272.121 648.404 273.255 648.404 274.561C648.404 274.908 648.524 275.215 648.764 275.481C649.004 275.748 649.337 275.881 649.764 275.881Z" fill="white"/>
<path d="M669.357 246.841C668.477 246.841 667.731 246.535 667.117 245.921C666.504 245.308 666.197 244.561 666.197 243.681C666.197 242.801 666.504 242.055 667.117 241.441C667.731 240.801 668.477 240.481 669.357 240.481C670.237 240.481 670.984 240.801 671.597 241.441C672.237 242.055 672.557 242.801 672.557 243.681C672.557 244.561 672.237 245.308 671.597 245.921C670.984 246.535 670.237 246.841 669.357 246.841ZM666.637 269.241C665.357 269.241 664.317 268.841 663.517 268.041C662.744 267.241 662.357 266.041 662.357 264.441C662.357 263.775 662.464 262.908 662.677 261.841L665.397 249.001H671.157L668.277 262.601C668.171 263.001 668.117 263.428 668.117 263.881C668.117 264.415 668.237 264.801 668.477 265.041C668.744 265.255 669.171 265.361 669.757 265.361C670.531 265.361 671.251 265.041 671.917 264.401C672.584 263.735 673.064 262.881 673.357 261.841H675.037C674.051 264.721 672.784 266.681 671.237 267.721C669.691 268.735 668.157 269.241 666.637 269.241Z" fill="white"/>
<path d="M686.581 269.241C684.955 269.241 683.755 268.815 682.981 267.961C682.235 267.081 681.861 266.001 681.861 264.721C681.861 264.161 681.928 263.535 682.061 262.841C682.195 262.121 682.328 261.428 682.461 260.761C682.621 260.095 682.728 259.668 682.781 259.481C682.995 258.548 683.195 257.628 683.381 256.721C683.568 255.815 683.661 255.081 683.661 254.521C683.661 253.161 683.181 252.481 682.221 252.481C681.528 252.481 680.915 252.828 680.381 253.521C679.848 254.188 679.421 255.068 679.101 256.161L676.381 269.001H670.621L674.861 249.001H680.621L680.181 251.081C681.515 249.588 683.075 248.841 684.861 248.841C686.221 248.841 687.301 249.215 688.101 249.961C688.901 250.708 689.301 251.841 689.301 253.361C689.301 254.135 689.208 255.001 689.021 255.961C688.835 256.895 688.568 258.041 688.221 259.401C688.008 260.228 687.808 261.041 687.621 261.841C687.461 262.615 687.381 263.228 687.381 263.681C687.381 264.215 687.501 264.628 687.741 264.921C687.981 265.215 688.395 265.361 688.981 265.361C689.781 265.361 690.421 265.081 690.901 264.521C691.381 263.935 691.861 263.041 692.341 261.841H694.021C693.035 264.775 691.888 266.748 690.581 267.761C689.301 268.748 687.968 269.241 686.581 269.241Z" fill="white"/>
<path d="M705.577 269.241C703.95 269.241 702.75 268.815 701.977 267.961C701.23 267.081 700.857 266.001 700.857 264.721C700.857 264.161 700.923 263.535 701.057 262.841C701.19 262.121 701.323 261.428 701.457 260.761C701.617 260.095 701.723 259.668 701.777 259.481C701.99 258.548 702.19 257.628 702.377 256.721C702.563 255.815 702.657 255.081 702.657 254.521C702.657 253.161 702.177 252.481 701.217 252.481C700.523 252.481 699.91 252.828 699.377 253.521C698.843 254.188 698.417 255.068 698.097 256.161L695.377 269.001H689.617L693.857 249.001H699.617L699.177 251.081C700.51 249.588 702.07 248.841 703.857 248.841C705.217 248.841 706.297 249.215 707.097 249.961C707.897 250.708 708.297 251.841 708.297 253.361C708.297 254.135 708.203 255.001 708.017 255.961C707.83 256.895 707.563 258.041 707.217 259.401C707.003 260.228 706.803 261.041 706.617 261.841C706.457 262.615 706.377 263.228 706.377 263.681C706.377 264.215 706.497 264.628 706.737 264.921C706.977 265.215 707.39 265.361 707.977 265.361C708.777 265.361 709.417 265.081 709.897 264.521C710.377 263.935 710.857 263.041 711.337 261.841H713.017C712.03 264.775 710.883 266.748 709.577 267.761C708.297 268.748 706.963 269.241 705.577 269.241Z" fill="white"/>
<path d="M716.812 246.841C715.932 246.841 715.185 246.535 714.572 245.921C713.959 245.308 713.652 244.561 713.652 243.681C713.652 242.801 713.959 242.055 714.572 241.441C715.185 240.801 715.932 240.481 716.812 240.481C717.692 240.481 718.439 240.801 719.052 241.441C719.692 242.055 720.012 242.801 720.012 243.681C720.012 244.561 719.692 245.308 719.052 245.921C718.439 246.535 717.692 246.841 716.812 246.841ZM714.092 269.241C712.812 269.241 711.772 268.841 710.972 268.041C710.199 267.241 709.812 266.041 709.812 264.441C709.812 263.775 709.919 262.908 710.132 261.841L712.852 249.001H718.612L715.732 262.601C715.625 263.001 715.572 263.428 715.572 263.881C715.572 264.415 715.692 264.801 715.932 265.041C716.199 265.255 716.625 265.361 717.212 265.361C717.985 265.361 718.705 265.041 719.372 264.401C720.039 263.735 720.519 262.881 720.812 261.841H722.492C721.505 264.721 720.239 266.681 718.692 267.721C717.145 268.735 715.612 269.241 714.092 269.241Z" fill="white"/>
<path d="M734.036 269.241C732.409 269.241 731.209 268.815 730.436 267.961C729.689 267.081 729.316 266.001 729.316 264.721C729.316 264.161 729.383 263.535 729.516 262.841C729.649 262.121 729.783 261.428 729.916 260.761C730.076 260.095 730.183 259.668 730.236 259.481C730.449 258.548 730.649 257.628 730.836 256.721C731.023 255.815 731.116 255.081 731.116 254.521C731.116 253.161 730.636 252.481 729.676 252.481C728.983 252.481 728.369 252.828 727.836 253.521C727.303 254.188 726.876 255.068 726.556 256.161L723.836 269.001H718.076L722.316 249.001H728.076L727.636 251.081C728.969 249.588 730.529 248.841 732.316 248.841C733.676 248.841 734.756 249.215 735.556 249.961C736.356 250.708 736.756 251.841 736.756 253.361C736.756 254.135 736.663 255.001 736.476 255.961C736.289 256.895 736.023 258.041 735.676 259.401C735.463 260.228 735.263 261.041 735.076 261.841C734.916 262.615 734.836 263.228 734.836 263.681C734.836 264.215 734.956 264.628 735.196 264.921C735.436 265.215 735.849 265.361 736.436 265.361C737.236 265.361 737.876 265.081 738.356 264.521C738.836 263.935 739.316 263.041 739.796 261.841H741.476C740.489 264.775 739.343 266.748 738.036 267.761C736.756 268.748 735.423 269.241 734.036 269.241Z" fill="white"/>
<path d="M745.631 279.001C744.378 279.001 743.271 278.588 742.311 277.761C741.378 276.961 740.911 275.935 740.911 274.681C740.911 273.508 741.205 272.548 741.791 271.801C742.378 271.055 743.138 270.468 744.071 270.041C745.005 269.615 746.258 269.161 747.831 268.681L748.191 267.001C746.805 268.495 745.205 269.241 743.391 269.241C741.871 269.241 740.605 268.721 739.591 267.681C738.578 266.641 738.071 265.015 738.071 262.801C738.071 260.828 738.458 258.761 739.231 256.601C740.031 254.415 741.205 252.575 742.751 251.081C744.325 249.561 746.191 248.801 748.351 248.801C749.445 248.801 750.258 248.988 750.791 249.361C751.325 249.735 751.591 250.228 751.591 250.841V250.921L751.991 249.001H757.791L752.911 272.201C752.378 274.761 751.431 276.535 750.071 277.521C748.738 278.508 747.258 279.001 745.631 279.001ZM745.991 265.361C746.605 265.361 747.218 265.108 747.831 264.601C748.471 264.068 748.925 263.321 749.191 262.361L751.231 252.681C751.018 251.748 750.471 251.281 749.591 251.281C748.525 251.281 747.565 251.908 746.711 253.161C745.858 254.388 745.191 255.881 744.711 257.641C744.231 259.375 743.991 260.908 743.991 262.241C743.991 263.575 744.178 264.428 744.551 264.801C744.951 265.175 745.431 265.361 745.991 265.361ZM744.711 275.441C745.191 275.441 745.645 275.188 746.071 274.681C746.498 274.201 746.831 273.415 747.071 272.321L747.551 269.961C746.138 270.441 745.045 271.001 744.271 271.641C743.498 272.281 743.111 273.108 743.111 274.121C743.111 274.441 743.271 274.735 743.591 275.001C743.911 275.295 744.285 275.441 744.711 275.441Z" fill="white"/>
<path d="M778.802 269.521C777.202 269.521 775.575 268.815 773.922 267.401L773.602 269.001H767.842L773.282 243.561L779.202 242.761L774.402 265.201C775.149 265.735 775.909 266.001 776.682 266.001C778.202 266.001 779.535 265.121 780.682 263.361C781.855 261.601 782.762 259.361 783.402 256.641C784.042 253.921 784.362 251.175 784.362 248.401C784.362 245.788 783.842 243.881 782.802 242.681C781.789 241.455 780.362 240.841 778.522 240.841C776.522 240.841 774.722 241.241 773.122 242.041C771.549 242.815 770.309 243.935 769.402 245.401C768.495 246.868 768.042 248.588 768.042 250.561C768.042 251.548 768.135 252.241 768.322 252.641C768.509 253.015 768.602 253.228 768.602 253.281C767.215 253.281 766.149 252.988 765.402 252.401C764.682 251.815 764.322 250.868 764.322 249.561C764.322 247.748 765.002 246.028 766.362 244.401C767.722 242.775 769.535 241.468 771.802 240.481C774.095 239.495 776.562 239.001 779.202 239.001C782.855 239.001 785.549 240.081 787.282 242.241C789.015 244.401 789.882 247.161 789.882 250.521C789.882 253.561 789.362 256.561 788.322 259.521C787.309 262.455 785.949 264.855 784.242 266.721C782.535 268.588 780.722 269.521 778.802 269.521Z" fill="white"/>
<path d="M794.205 269.241C792.685 269.241 791.419 268.721 790.405 267.681C789.392 266.641 788.885 265.015 788.885 262.801C788.885 260.828 789.272 258.761 790.045 256.601C790.845 254.415 792.019 252.575 793.565 251.081C795.139 249.561 797.005 248.801 799.165 248.801C800.259 248.801 801.072 248.988 801.605 249.361C802.139 249.735 802.405 250.228 802.405 250.841V251.121L802.845 249.001H808.605L805.725 262.601C805.619 263.001 805.565 263.428 805.565 263.881C805.565 265.028 806.112 265.601 807.205 265.601C807.952 265.601 808.592 265.255 809.125 264.561C809.685 263.868 810.125 262.961 810.445 261.841H812.125C811.139 264.721 809.912 266.681 808.445 267.721C807.005 268.735 805.552 269.241 804.085 269.241C802.965 269.241 802.059 268.935 801.365 268.321C800.699 267.681 800.299 266.761 800.165 265.561C799.392 266.655 798.525 267.548 797.565 268.241C796.632 268.908 795.512 269.241 794.205 269.241ZM796.805 265.361C797.472 265.361 798.125 265.055 798.765 264.441C799.432 263.801 799.885 262.935 800.125 261.841L802.045 252.801C802.045 252.455 801.912 252.121 801.645 251.801C801.379 251.455 800.965 251.281 800.405 251.281C799.339 251.281 798.379 251.908 797.525 253.161C796.672 254.388 796.005 255.881 795.525 257.641C795.045 259.375 794.805 260.908 794.805 262.241C794.805 263.575 794.992 264.428 795.365 264.801C795.765 265.175 796.245 265.361 796.805 265.361Z" fill="white"/>
<path d="M815.5 279.001C814.247 279.001 813.14 278.588 812.18 277.761C811.247 276.961 810.78 275.935 810.78 274.681C810.78 273.508 811.073 272.548 811.66 271.801C812.247 271.055 813.007 270.468 813.94 270.041C814.873 269.615 816.127 269.161 817.7 268.681L818.1 266.921C816.74 268.468 815.113 269.241 813.22 269.241C811.94 269.241 810.9 268.841 810.1 268.041C809.327 267.241 808.94 266.041 808.94 264.441C808.94 263.775 809.047 262.908 809.26 261.841L811.98 249.001H817.74L814.86 262.601C814.78 262.921 814.74 263.255 814.74 263.601C814.74 264.775 815.14 265.361 815.94 265.361C816.687 265.361 817.327 265.055 817.86 264.441C818.393 263.801 818.82 262.935 819.14 261.841L821.86 249.001H827.66L822.78 272.201C822.247 274.761 821.3 276.535 819.94 277.521C818.607 278.508 817.127 279.001 815.5 279.001ZM814.58 275.441C815.06 275.441 815.513 275.188 815.94 274.681C816.367 274.201 816.7 273.415 816.94 272.321L817.42 269.961C816.007 270.441 814.914 271.001 814.14 271.641C813.367 272.281 812.98 273.108 812.98 274.121C812.98 274.441 813.14 274.735 813.46 275.001C813.78 275.295 814.154 275.441 814.58 275.441Z" fill="white"/>
<path d="M115.266 90.5821C115.266 83.749 112.222 79.7113 106.135 78.4689V74.3691C119.552 66.9148 126.323 63.1877 126.448 63.1877C127.566 63.1877 129.554 64.4301 132.411 66.9148C135.269 69.2753 137.008 71.8222 137.629 74.5554C137.878 74.3069 141.667 72.3813 148.997 68.7784C156.327 65.0513 160.054 63.1877 160.178 63.1877C162.663 63.1877 165.396 64.6785 168.378 67.6602C174.093 73.3752 176.95 81.0158 176.95 90.5821V189.351C176.95 190.469 170.304 193.637 157.01 198.855C143.717 204.073 135.455 206.682 132.225 206.682C126.386 206.682 121.54 202.831 117.689 195.128C104.023 202.831 95.3883 206.682 91.7854 206.682C88.1825 206.682 84.6417 204.073 81.1631 198.855C77.8087 193.513 76.1315 188.605 76.1315 184.133V90.5821C76.1315 83.749 73.0876 79.7113 67 78.4689V74.3691L87.3128 63.0013C90.0461 64.1195 92.5929 65.983 94.9534 68.592C97.314 71.0768 98.4942 73.3752 98.4942 75.4872V170.342C98.4942 182.145 102.159 188.046 109.489 188.046C111.353 188.046 113.278 187.674 115.266 186.928V90.5821ZM137.815 172.206C137.815 176.182 138.561 179.909 140.052 183.387C141.667 186.742 143.841 188.419 146.574 188.419C149.307 188.419 151.916 187.86 154.401 186.742V97.2909C154.401 90.8305 153.097 86.5443 150.488 84.4323C147.879 82.196 143.655 81.0158 137.815 80.8915V172.206Z" fill="white"/>
<path d="M191.789 179.474V117.604C191.789 116.734 198.87 113.69 213.033 108.472C227.197 103.13 235.334 100.459 237.446 100.459C239.558 100.459 242.726 103.006 246.95 108.1C251.299 113.193 253.473 117.79 253.473 121.89V189.351C253.473 190.345 246.64 193.513 232.974 198.855C219.432 204.073 211.108 206.682 208.002 206.682C205.02 206.682 201.541 204.011 197.566 198.669C193.715 193.326 191.789 186.928 191.789 179.474ZM223.656 189.537C226.016 189.537 228.439 188.543 230.924 186.555V131.58C230.924 122.387 227.756 117.79 221.419 117.79C218.935 117.79 216.512 118.722 214.152 120.585V175.747C214.152 184.94 217.32 189.537 223.656 189.537Z" fill="white"/>
<path d="M259.187 111.64L279.686 100.459C280.556 100.707 281.55 101.08 282.668 101.577C283.91 101.95 285.526 103.13 287.513 105.118C289.625 107.106 290.681 109.342 290.681 111.827C291.303 111.578 294.222 109.653 299.44 106.05C304.782 102.322 308.199 100.459 309.69 100.459C313.665 100.459 317.393 103.068 320.871 108.286C324.35 113.504 326.089 118.287 326.089 122.635V131.767L306.894 142.575L303.726 139.966C303.726 129.53 302.732 123.567 300.745 122.076C298.508 120.461 295.154 119.654 290.681 119.654V179.101C290.681 186.68 293.228 190.966 298.322 191.96V196.06L279.5 206.682C276.767 205.564 274.22 203.762 271.859 201.278C269.499 198.669 268.319 196.246 268.319 194.01V132.139C268.319 126.673 267.325 122.573 265.337 119.84C263.473 117.107 261.423 115.74 259.187 115.74V111.64Z" fill="white"/>
<path d="M357.748 76.0463V179.101C357.748 186.68 360.295 190.966 365.388 191.96V196.06L346.566 206.682C343.833 205.564 341.286 203.762 338.926 201.278C336.565 198.669 335.385 196.246 335.385 194.01V90.9548C335.385 83.3763 332.838 79.0901 327.745 78.0962V73.9964L346.566 63.3741C349.3 64.4922 351.847 66.3558 354.207 68.9647C356.568 71.4495 357.748 73.81 357.748 76.0463Z" fill="white"/>
<path d="M411.368 63.1877C414.722 63.1877 420.002 71.3252 427.208 87.6003C434.414 103.875 438.017 115.119 438.017 121.331V178.169C438.017 181.027 438.762 183.822 440.253 186.555C441.868 189.289 444.104 190.842 446.962 191.214V195.314C446.092 195.438 439.321 199.228 426.649 206.682C423.791 205.44 421.182 203.638 418.822 201.278C416.586 198.793 415.467 196.494 415.467 194.382C402.174 202.582 394.409 206.682 392.173 206.682C391.303 206.682 389.626 205.75 387.141 203.887C384.781 201.899 382.358 199.103 379.873 195.501C377.513 191.773 376.333 187.984 376.333 184.133V117.604C376.333 116.361 386.831 112.075 407.827 104.745C403.354 94.9304 399.751 88.0352 397.018 84.0596C394.285 80.084 391.614 78.0962 389.005 78.0962H382.855V72.5055C396.645 66.2936 406.15 63.1877 411.368 63.1877ZM408.199 189.537C410.56 189.537 412.983 188.543 415.467 186.555V121.704C415.467 120.958 414.908 119.405 413.79 117.045C412.796 114.56 412.051 113.318 411.554 113.318C407.951 113.318 404.286 114.436 400.559 116.672L398.695 117.79V175.747C398.695 184.94 401.863 189.537 408.199 189.537Z" fill="white"/>
<path d="M464.98 165.87C461.874 165.87 459.203 163.509 456.967 158.788C454.73 154.067 453.612 148.29 453.612 141.457V121.331C453.612 118.97 460.135 114.933 473.18 109.218C486.225 103.379 493.741 100.459 495.729 100.459C496.847 100.459 497.841 101.142 498.71 102.509C499.58 103.751 500.263 104.807 500.76 105.677C501.257 106.422 502.003 107.789 502.997 109.777C504.115 111.64 505.047 113.193 505.792 114.436C507.407 117.417 509.457 118.908 511.942 118.908V122.635C509.954 123.505 507.345 124.809 504.115 126.549C496.164 130.897 491.877 133.071 491.256 133.071C489.393 133.071 487.343 130.027 485.106 123.94C482.994 117.852 481.069 114.808 479.329 114.808C477.093 114.808 475.975 116.672 475.975 120.399V143.321C475.975 148.29 477.093 150.775 479.329 150.775C479.826 150.775 483.678 149.16 490.883 145.93C498.089 142.7 502.438 141.085 503.928 141.085C506.91 141.085 509.519 143.507 511.755 148.352C514.116 153.074 515.296 159.161 515.296 166.615V187.674C515.296 190.034 508.152 194.134 493.865 199.973C479.702 205.688 471.565 208.546 469.452 208.546C468.583 208.546 467.713 207.8 466.844 206.309C466.098 204.694 464.98 202.272 463.489 199.041C462.122 195.811 460.756 193.078 459.389 190.842C457.774 187.86 455.724 186.369 453.24 186.369V182.642C455.227 181.772 457.898 180.468 461.253 178.729C469.08 174.38 473.304 172.206 473.925 172.206C475.789 172.206 478.087 175.871 480.82 183.201C483.678 190.531 485.976 194.196 487.715 194.196C488.958 194.196 490.138 193.699 491.256 192.705C492.374 191.711 492.933 190.345 492.933 188.605V165.311C492.933 159.72 491.38 156.925 488.274 156.925C487.281 156.925 483.367 158.416 476.534 161.397C469.701 164.379 465.85 165.87 464.98 165.87Z" fill="white"/>
<path d="M593.138 81.2642C591.895 81.2642 590.777 81.8854 589.783 83.1278V132.326H616.06V136.798L606.742 141.457H589.783V160.093C589.783 173.883 591.15 181.959 593.883 184.319C597.983 187.798 602.456 189.786 607.301 190.283C612.146 190.78 617.364 191.028 622.955 191.028V196.432C622.334 196.432 617.737 198.172 609.164 201.65C600.592 205.005 595.374 206.682 593.51 206.682C589.659 206.682 584.317 203.7 577.484 197.737C570.775 191.773 567.421 185.313 567.421 178.356V80.3325C567.421 79.4628 574.502 76.419 588.665 71.201C602.953 65.8588 611.152 63.1877 613.264 63.1877C614.01 63.1877 614.879 64.9891 615.873 68.592C616.867 72.1949 617.985 76.5432 619.228 81.637C620.594 86.7307 621.961 90.5199 623.327 93.0047C624.818 95.3652 627.552 96.5455 631.527 96.5455V100.273C628.794 101.515 624.135 103.751 617.55 106.981C611.09 110.087 607.611 111.64 607.114 111.64C605.251 111.64 602.89 106.609 600.033 96.5455C597.175 86.358 594.877 81.2642 593.138 81.2642Z" fill="white"/>
<path d="M642.764 194.01V130.835C642.764 126.735 641.894 123.194 640.155 120.213C638.416 117.231 636.241 115.74 633.632 115.74V111.64C634.502 111.516 641.273 107.727 653.945 100.273C654.815 100.521 655.871 100.894 657.113 101.391C658.356 101.763 659.971 102.944 661.959 104.931C664.071 106.919 665.127 109.218 665.127 111.827C665.872 111.454 667.984 110.274 671.463 108.286C680.656 103.068 686.123 100.459 687.862 100.459C691.838 100.459 695.565 103.068 699.043 108.286C702.522 113.504 704.261 118.287 704.261 122.635V179.101C704.261 185.934 707.305 189.972 713.393 191.214V195.314L693.08 206.682C690.347 205.564 687.8 203.762 685.439 201.278C683.079 198.669 681.899 196.246 681.899 194.01V139.966C681.899 133.009 681.091 127.729 679.476 124.126C677.985 120.399 675.252 118.535 671.276 118.535L665.127 119.654V179.101C665.127 186.68 667.673 190.966 672.767 191.96V196.06L653.945 206.682C651.212 205.564 648.665 203.762 646.305 201.278C643.944 198.669 642.764 196.246 642.764 194.01Z" fill="white"/>
<path d="M757.874 63.1877C761.228 63.1877 766.508 71.3252 773.714 87.6003C780.92 103.875 784.523 115.119 784.523 121.331V178.169C784.523 181.027 785.268 183.822 786.759 186.555C788.374 189.289 790.61 190.842 793.468 191.214V195.314C792.598 195.438 785.827 199.228 773.155 206.682C770.298 205.44 767.689 203.638 765.328 201.278C763.092 198.793 761.974 196.494 761.974 194.382C748.68 202.582 740.915 206.682 738.679 206.682C737.809 206.682 736.132 205.75 733.647 203.887C731.287 201.899 728.864 199.103 726.38 195.501C724.019 191.773 722.839 187.984 722.839 184.133V117.604C722.839 116.361 733.337 112.075 754.333 104.745C749.86 94.9304 746.258 88.0352 743.524 84.0596C740.791 80.084 738.12 78.0962 735.511 78.0962H729.361V72.5055C743.152 66.2936 752.656 63.1877 757.874 63.1877ZM754.706 189.537C757.066 189.537 759.489 188.543 761.974 186.555V121.704C761.974 120.958 761.415 119.405 760.296 117.045C759.303 114.56 758.557 113.318 758.06 113.318C754.457 113.318 750.792 114.436 747.065 116.672L745.202 117.79V175.747C745.202 184.94 748.37 189.537 754.706 189.537Z" fill="white"/>
<path d="M864.119 81.2642C862.876 81.2642 861.758 81.8854 860.764 83.1278V160.093C860.764 165.311 861.075 169.535 861.696 172.765C862.317 175.871 863.684 178.977 865.796 182.083C869.896 188.046 879.276 191.028 893.936 191.028V196.432C893.315 196.432 888.718 198.172 880.145 201.65C871.573 205.005 866.355 206.682 864.491 206.682C858.28 206.682 852.378 203.141 846.788 196.06C841.197 188.854 838.402 181.275 838.402 173.324V80.3325C838.402 79.4628 845.483 76.419 859.646 71.201C873.933 65.8588 882.133 63.1877 884.245 63.1877C884.991 63.1877 885.86 64.9891 886.854 68.592C887.848 72.1949 888.966 76.5432 890.209 81.637C891.575 86.7307 892.942 90.5199 894.308 93.0047C895.799 95.3652 898.533 96.5455 902.508 96.5455V100.273C899.775 101.515 895.116 103.751 888.531 106.981C882.071 110.087 878.592 111.64 878.095 111.64C876.232 111.64 873.871 106.609 871.014 96.5455C868.156 86.358 865.858 81.2642 864.119 81.2642Z" fill="white"/>
<path d="M964.061 125.058V177.797C964.061 182.394 964.806 185.624 966.297 187.487C967.788 189.227 970.086 190.469 973.192 191.214V195.314L952.88 206.682C950.146 205.564 947.6 203.762 945.239 201.278C942.878 198.669 941.698 196.308 941.698 194.196L918.404 206.682C918.031 206.433 917.472 206.123 916.727 205.75C915.981 205.253 914.677 204.321 912.813 202.955C911.074 201.464 909.521 199.911 908.154 198.296C904.427 194.196 902.563 189.537 902.563 184.319V153.757C902.563 151.769 905.794 149.222 912.254 146.116C918.714 143.01 925.175 140.463 931.635 138.476L941.512 135.308C941.512 128.226 939.648 123.319 935.921 120.585C932.194 117.728 924.988 116.299 914.304 116.299V110.709C933.561 103.875 944.369 100.459 946.73 100.459C950.83 100.459 954.743 103.13 958.47 108.472C962.197 113.814 964.061 119.343 964.061 125.058ZM924.926 177.61C924.926 180.841 925.858 183.512 927.721 185.624C929.709 187.611 931.883 188.605 934.244 188.605C936.604 188.605 939.089 187.674 941.698 185.81V143.694C938.592 144.812 936.232 145.743 934.617 146.489C933.126 147.234 931.511 148.415 929.771 150.03C926.541 153.011 924.926 158.167 924.926 165.497V177.61Z" fill="white"/>
<path d="M982.726 84.246C982.726 81.8854 989.062 77.8477 1001.73 72.1328C1014.41 66.2936 1022.11 63.3741 1024.84 63.3741C1025.84 63.3741 1026.64 63.871 1027.26 64.8649C1027.89 65.7346 1028.38 66.5421 1028.76 67.2875L1030.43 70.8283C1031.3 72.4434 1032.17 73.9964 1033.04 75.4872C1034.66 78.4689 1036.71 79.9598 1039.19 79.9598V83.6869C1037.2 84.5565 1034.53 85.9231 1031.18 87.7867C1023.35 92.0108 1019.13 94.1228 1018.51 94.1228C1016.64 94.1228 1014.9 91.3896 1013.29 85.9232C1011.8 80.4567 1010.18 77.7235 1008.44 77.7235C1006.21 77.7235 1005.09 79.587 1005.09 83.3142V110.709H1024.1V115.181L1014.78 119.84H1005.09V179.101C1005.09 186.68 1007.64 190.966 1012.73 191.96V196.06L993.907 206.682C991.174 205.564 988.627 203.762 986.267 201.278C983.906 198.669 982.726 196.246 982.726 194.01V119.84H971.358V115.74L982.726 110.709V84.246Z" fill="white"/>
<path d="M1081.16 100.459C1081.78 100.459 1083.33 101.453 1085.82 103.441C1088.3 105.304 1090.79 107.975 1093.27 111.454C1095.76 114.808 1097 118.101 1097 121.331V152.639C1097 154.875 1093.71 157.608 1087.12 160.838C1080.54 164.069 1074.14 166.74 1067.93 168.852C1061.84 170.839 1058.55 171.833 1058.05 171.833C1058.05 181.4 1062.21 187.301 1070.54 189.537C1074.64 190.531 1079.54 191.028 1085.26 191.028V196.432C1064.88 203.265 1054.01 206.682 1052.65 206.682C1048.92 206.682 1045.13 204.073 1041.28 198.855C1037.43 193.513 1035.5 187.301 1035.5 180.219V117.604C1035.5 116.734 1042.58 113.69 1056.75 108.472C1070.91 103.13 1079.05 100.459 1081.16 100.459ZM1074.64 130.09C1074.64 126.611 1073.83 123.691 1072.21 121.331C1070.6 118.846 1068.55 117.604 1066.06 117.604C1063.58 117.604 1060.85 118.535 1057.87 120.399V163.447C1069.05 160.341 1074.64 153.633 1074.64 143.321V130.09Z" fill="white"/>
<path d="M451.552 78.3606V72.8542C451.552 72.5856 453.387 71.7798 457.058 70.4368C460.819 69.0042 462.967 68.288 463.505 68.288C464.131 68.288 464.982 69.049 466.056 70.5711C467.22 72.0932 467.802 73.66 467.802 75.2716V82.3896C467.802 85.0756 466.728 89.1047 464.579 94.4767C462.43 99.9383 459.565 103.699 455.984 105.758L449.94 100.117C451.552 99.4906 452.716 97.7895 453.432 95.0139C454.148 92.3279 454.506 89.821 454.506 87.4931C454.506 87.1349 454.014 86.1053 453.029 84.4041C452.044 82.703 451.552 80.6885 451.552 78.3606Z" fill="white"/>
</svg>
