<svg width="733" height="127" viewBox="0 0 733 127" fill="none" xmlns="http://www.w3.org/2000/svg">
<path d="M0.461426 125V2.10938H19.1743V109.08H42.8447V125H0.461426Z" fill="#FFB31E"/>
<path d="M86.6245 88.063L78.3853 26.3384H78.106L70.5649 88.063H86.6245ZM48.0815 125L65.6074 2.10938H90.3252L108.968 125H91.5122L88.5796 103.075H68.7495L66.0962 125H48.0815Z" fill="#FFB31E"/>
<path d="M174.463 93.4395C174.463 104.751 172.322 113.083 168.04 118.437C163.757 123.743 156.868 126.396 147.372 126.396C137.922 126.396 131.033 123.72 126.704 118.367C122.421 113.014 120.28 104.704 120.28 93.4395V2.03955H138.993V93.0903C138.993 99.5607 139.295 103.494 139.9 104.891C140.506 106.287 141.227 107.567 142.065 108.731C142.949 109.848 144.742 110.407 147.441 110.407C150.141 110.407 152.073 109.615 153.237 108.033C154.401 106.45 155.099 104.495 155.332 102.167C155.611 99.7935 155.75 96.7677 155.75 93.0903V2.03955H174.463V93.4395Z" fill="#FFB31E"/>
<path d="M192.199 125V2.10938H206.862L232.906 75.8438L231.58 42.3281V2.10938H248.407V125H235.141L208.398 48.6821L209.445 80.9409V125H192.199Z" fill="#FFB31E"/>
<path d="M318.79 91.4844C318.79 103.354 316.672 112.152 312.436 117.878C308.2 123.557 301.543 126.396 292.466 126.396C283.389 126.396 276.593 123.371 272.078 117.319C267.609 111.221 265.375 102.47 265.375 91.0654V37.5103C265.375 19.2163 270.169 7.78841 279.758 3.22656C283.296 1.55078 287.579 0.712891 292.606 0.712891C309.876 0.712891 318.511 11.6055 318.511 33.3906V50.2881H300.426V34.5776C300.426 28.2469 299.891 23.7316 298.82 21.0317C297.75 18.2853 295.655 16.9121 292.536 16.9121C289.417 16.9121 287.253 18.3551 286.042 21.2412C284.832 24.1273 284.227 28.5495 284.227 34.5078V91.9033C284.227 98.5133 284.809 103.238 285.973 106.078C287.136 108.917 289.254 110.337 292.327 110.337C295.399 110.337 297.517 108.894 298.681 106.008C299.844 103.122 300.426 98.3504 300.426 91.6938V74.0981H318.79V91.4844Z" fill="#FFB31E"/>
<path d="M334.082 125V2.10938H352.794V51.8242H369.552V2.10938H388.265V125H369.552V67.8838H352.794V125H334.082Z" fill="#FFB31E"/>
<path d="M484.273 91.4844C484.273 103.354 482.155 112.152 477.919 117.878C473.683 123.557 467.027 126.396 457.95 126.396C448.873 126.396 442.076 123.371 437.561 117.319C433.092 111.221 430.858 102.47 430.858 91.0654V37.5103C430.858 19.2163 435.652 7.78841 445.242 3.22656C448.779 1.55078 453.062 0.712891 458.089 0.712891C475.359 0.712891 483.994 11.6055 483.994 33.3906V50.2881H465.91V34.5776C465.91 28.2469 465.374 23.7316 464.304 21.0317C463.233 18.2853 461.138 16.9121 458.02 16.9121C454.901 16.9121 452.736 18.3551 451.526 21.2412C450.316 24.1273 449.71 28.5495 449.71 34.5078V91.9033C449.71 98.5133 450.292 103.238 451.456 106.078C452.62 108.917 454.738 110.337 457.81 110.337C460.882 110.337 463 108.894 464.164 106.008C465.328 103.122 465.91 98.3504 465.91 91.6938V74.0981H484.273V91.4844Z" fill="#FFB31E"/>
<path d="M524.283 67.2554L518.278 66.9761V125H499.565V2.10938H530.497C536.921 2.10938 541.716 3.41276 544.881 6.01953C548.046 8.57975 550.118 12.1873 551.095 16.8423C552.119 21.4507 552.631 27.5021 552.631 34.9966C552.631 42.4445 551.84 48.1235 550.257 52.0337C548.675 55.9438 545.742 58.5739 541.459 59.9238C545.695 60.6686 548.651 63.5314 550.327 68.5122C552.003 73.493 552.841 83.8735 552.841 99.6538C552.841 115.388 553.074 123.836 553.539 125H534.826C534.361 124.069 534.128 109.383 534.128 80.9409C534.128 75.4946 533.476 71.887 532.173 70.1182C530.869 68.3027 528.239 67.3485 524.283 67.2554ZM518.348 52.4526H525.819C528.193 52.4526 529.938 51.9173 531.056 50.8467C532.219 49.776 533.011 47.9373 533.43 45.3306C533.895 42.7238 534.128 38.7438 534.128 33.3906V32.6226C534.128 25.966 533.569 21.6136 532.452 19.5654C531.335 17.5173 528.751 16.4932 524.702 16.4932H518.348V52.4526Z" fill="#FFB31E"/>
<path d="M603.044 88.063L594.805 26.3384H594.526L586.985 88.063H603.044ZM564.501 125L582.027 2.10938H606.745L625.388 125H607.932L605 103.075H585.169L582.516 125H564.501Z" fill="#FFB31E"/>
<path d="M638.166 125V2.10938H680.34V18.3784H656.879V51.0562H678.664V67.395H656.879V125H638.166Z" fill="#FFB31E"/>
<path d="M700.1 125V18.3086H685.716V2.10938H732.568V18.3086H718.743V125H700.1Z" fill="#FFB31E"/>
</svg>
